<svg width="110" height="73" viewBox="0 0 110 73" fill="none" xmlns="http://www.w3.org/2000/svg">
<path d="M67.8061 52.1861H34.1744C29.2964 52.1861 24.2717 50.5211 22.1059 46.1504C20.9628 43.8437 20.1736 41.1191 20.4029 38.2465C20.4203 38.0285 20.443 37.8147 20.4709 37.6051C21.4948 29.9064 28.7635 23.3257 32.8652 16.7307C34.2994 14.4246 36.0387 12.6264 38.0608 12.1236C43.3582 10.8065 47.6255 15.5262 49.097 18.0507C54.1772 25.2948 65.4517 40.6832 65.2835 44.7224C65.1153 48.7616 67.0703 52.1861 67.8061 52.1861Z" fill="white" stroke="black" stroke-width="5"/>
<ellipse cx="68.6458" cy="22.8542" rx="2.30917" ry="2.32443" fill="black"/>
<ellipse cx="81.9389" cy="43.0992" rx="2.93894" ry="3.09924" fill="black"/>
<ellipse cx="45.7636" cy="35.3619" rx="2.93894" ry="3.09924" fill="black"/>
<path d="M38.3113 46.5412L34.0078 40.6748" stroke="black" stroke-width="8" stroke-linecap="round"/>
<path d="M66.8608 52.1862H79.1785C83.124 52.1862 87.3079 51.178 89.2985 47.7714C90.2677 46.1128 90.9399 44.1117 90.7922 41.8923C90.7096 40.6515 90.3061 39.412 89.7303 38.2186C86.9315 32.4173 84.631 25.6256 80.7803 20.4622C77.7016 16.3339 72.9089 12.384 67.9104 11.5641C59.9568 10.2594 53.5306 13.9254 47.8627 15.9916" stroke="black" stroke-width="5"/>
<path d="M80.7716 18.8168C80.7716 18.7578 80.8195 18.71 80.8785 18.71H95.8785C95.9376 18.71 95.9854 18.7578 95.9854 18.8168C95.9854 18.8759 95.9376 18.9237 95.8785 18.9237H80.8785C80.8195 18.9237 80.7716 18.8759 80.7716 18.8168Z" fill="#0FDBFF" stroke="black" stroke-width="2"/>
<path d="M84.3402 25.2368C84.3402 25.1777 84.3881 25.1299 84.4471 25.1299H100.707C100.766 25.1299 100.814 25.1777 100.814 25.2368C100.814 25.2958 100.766 25.3436 100.707 25.3436H84.4471C84.3881 25.3436 84.3402 25.2958 84.3402 25.2368Z" fill="white" stroke="black" stroke-width="2"/>
<path d="M86.2295 31.6567C86.2295 31.5977 86.2773 31.5498 86.3364 31.5498H102.596C102.655 31.5498 102.703 31.5977 102.703 31.6567C102.703 31.7157 102.655 31.7635 102.596 31.7635H86.3364C86.2773 31.7635 86.2295 31.7157 86.2295 31.6567Z" fill="white" stroke="black" stroke-width="2"/>
<path d="M89.7981 37.412C89.7981 37.353 89.8459 37.3052 89.905 37.3052H106.165C106.224 37.3052 106.271 37.353 106.271 37.412C106.271 37.4711 106.224 37.5189 106.165 37.5189H89.905C89.8459 37.5189 89.7981 37.4711 89.7981 37.412Z" fill="white" stroke="black" stroke-width="2"/>
<path d="M90.4277 46.4887C90.4277 46.4297 90.4756 46.3818 90.5346 46.3818H102.596C102.655 46.3818 102.703 46.4297 102.703 46.4887C102.703 46.5477 102.655 46.5956 102.596 46.5956H90.5346C90.4756 46.5956 90.4277 46.5477 90.4277 46.4887Z" fill="#0FDBFF" stroke="black" stroke-width="2"/>
<mask id="path-12-inside-1_438_211" fill="white">
<ellipse cx="102.968" cy="25.1261" rx="1.57443" ry="1.66031"/>
</mask>
<ellipse cx="102.968" cy="25.1261" rx="1.57443" ry="1.66031" fill="white"/>
<path d="M102.543 25.1261C102.543 25.0668 102.567 24.9909 102.63 24.924C102.695 24.8552 102.815 24.7864 102.968 24.7864V28.7864C105.041 28.7864 106.543 27.0462 106.543 25.1261H102.543ZM102.968 24.7864C103.121 24.7864 103.241 24.8552 103.306 24.924C103.37 24.9909 103.394 25.0668 103.394 25.1261H99.3938C99.3938 27.0462 100.895 28.7864 102.968 28.7864V24.7864ZM103.394 25.1261C103.394 25.1855 103.37 25.2614 103.306 25.3283C103.241 25.397 103.121 25.4658 102.968 25.4658V21.4658C100.895 21.4658 99.3938 23.206 99.3938 25.1261H103.394ZM102.968 25.4658C102.815 25.4658 102.695 25.397 102.63 25.3283C102.567 25.2614 102.543 25.1855 102.543 25.1261H106.543C106.543 23.206 105.041 21.4658 102.968 21.4658V25.4658Z" fill="black" mask="url(#path-12-inside-1_438_211)"/>
<path d="M30.4934 20.087C30.4936 20.146 30.4459 20.194 30.3869 20.1942L14.1274 20.2498C14.0683 20.25 14.0204 20.2023 14.0202 20.1433C14.02 20.0842 14.0677 20.0362 14.1267 20.036L30.3862 19.9805C30.4453 19.9803 30.4932 20.028 30.4934 20.087Z" fill="#0FDBFF" stroke="black" stroke-width="2"/>
<path d="M26.4767 27.1104C26.4769 27.1694 26.4292 27.2175 26.3702 27.2177L10.1106 27.2732C10.0516 27.2734 10.0036 27.2257 10.0035 27.1667C10.0033 27.1077 10.051 27.0597 10.11 27.0595L26.3695 27.0039C26.4285 27.0037 26.4765 27.0514 26.4767 27.1104Z" fill="white" stroke="black" stroke-width="2"/>
<path d="M21.6751 32.7667C21.6753 32.8257 21.6276 32.8737 21.5685 32.8739L5.30901 32.9295C5.24999 32.9297 5.202 32.882 5.20181 32.823C5.20163 32.7639 5.24933 32.7159 5.30835 32.7157L21.5679 32.6602C21.6269 32.66 21.6749 32.7076 21.6751 32.7667Z" fill="white" stroke="black" stroke-width="2"/>
<path d="M20.2057 39.1866C20.2059 39.2456 20.1582 39.2936 20.0992 39.2938L3.83965 39.3494C3.78063 39.3496 3.73264 39.3019 3.73245 39.2429C3.73227 39.1839 3.77997 39.1358 3.83899 39.1356L20.0985 39.0801C20.1575 39.0799 20.2055 39.1276 20.2057 39.1866Z" fill="white" stroke="black" stroke-width="2"/>
<path d="M21.2552 46.0489C21.2553 46.1079 21.2076 46.1559 21.1486 46.1561L4.88909 46.2117C4.83007 46.2119 4.78207 46.1642 4.78189 46.1052C4.78171 46.0462 4.82941 45.9981 4.88843 45.9979L21.148 45.9424C21.207 45.9422 21.255 45.9899 21.2552 46.0489Z" fill="#0FDBFF" stroke="black" stroke-width="2"/>
<mask id="path-19-inside-2_438_211" fill="white">
<ellipse cx="1.57443" cy="1.6603" rx="1.57443" ry="1.6603" transform="matrix(-0.999994 0.00341659 -0.00307231 -0.999995 13.4453 21.6943)"/>
</mask>
<ellipse cx="1.57443" cy="1.6603" rx="1.57443" ry="1.6603" transform="matrix(-0.999994 0.00341659 -0.00307231 -0.999995 13.4453 21.6943)" fill="white"/>
<path d="M12.2914 20.038C12.2915 20.0973 12.2676 20.1733 12.2044 20.2404C12.1394 20.3094 12.0197 20.3786 11.8668 20.3791L11.8545 16.3791C9.7817 16.3862 8.28547 18.1315 8.29137 20.0516L12.2914 20.038ZM11.8668 20.3791C11.714 20.3796 11.5939 20.3113 11.5285 20.2427C11.4648 20.1761 11.4404 20.1002 11.4402 20.0409L15.4402 20.0272C15.4343 18.1071 13.9274 16.372 11.8545 16.3791L11.8668 20.3791ZM11.4402 20.0409C11.44 19.9815 11.464 19.9055 11.5272 19.8384C11.5922 19.7694 11.7119 19.7002 11.8647 19.6997L11.877 23.6997C13.9499 23.6926 15.4461 21.9473 15.4402 20.0272L11.4402 20.0409ZM11.8647 19.6997C12.0176 19.6992 12.1377 19.7676 12.2031 19.8361C12.2668 19.9028 12.2912 19.9786 12.2914 20.038L8.29137 20.0516C8.29727 21.9717 9.80419 23.7068 11.877 23.6997L11.8647 19.6997Z" fill="black" mask="url(#path-19-inside-2_438_211)"/>
<path d="M46.4019 13.8414C46.3744 13.8411 46.3524 13.8187 46.3526 13.7913L46.4342 4.09115C46.4344 4.06374 46.4568 4.04173 46.4842 4.04199C46.5116 4.04225 46.5336 4.06467 46.5334 4.09208L46.4519 13.7922C46.4517 13.8196 46.4293 13.8416 46.4019 13.8414Z" fill="white" stroke="black" stroke-width="2"/>
<mask id="path-22-inside-3_438_211" fill="white">
<ellipse cx="1.6603" cy="1.57444" rx="1.6603" ry="1.57444" transform="matrix(0.00840289 -0.999965 0.999956 0.00934443 44.9241 3.32031)"/>
</mask>
<ellipse cx="1.6603" cy="1.57444" rx="1.6603" ry="1.57444" transform="matrix(0.00840289 -0.999965 0.999956 0.00934443 44.9241 3.32031)" fill="#D9D9D9"/>
<path d="M46.5095 2.01447C46.3567 2.01305 46.2374 1.94316 46.1728 1.8738C46.1099 1.80631 46.0864 1.73017 46.0869 1.67081L50.0867 1.70819C50.1028 -0.211882 48.6159 -1.96602 46.5432 -1.98538L46.5095 2.01447ZM46.0869 1.67081C46.0874 1.61145 46.1122 1.53575 46.1762 1.46945C46.2419 1.40131 46.3624 1.33367 46.5152 1.3351L46.4816 5.33495C48.5544 5.35432 50.0705 3.62825 50.0867 1.70819L46.0869 1.67081ZM46.5152 1.3351C46.6681 1.33652 46.7874 1.40641 46.852 1.47577C46.9149 1.54326 46.9384 1.6194 46.9379 1.67876L42.9381 1.64138C42.922 3.56145 44.4089 5.31558 46.4816 5.33495L46.5152 1.3351ZM46.9379 1.67876C46.9374 1.73812 46.9126 1.81381 46.8486 1.88012C46.7829 1.94825 46.6624 2.0159 46.5095 2.01447L46.5432 -1.98538C44.4704 -2.00475 42.9542 -0.278684 42.9381 1.64138L46.9379 1.67876Z" fill="black" mask="url(#path-22-inside-3_438_211)"/>
<mask id="path-24-inside-4_438_211" fill="white">
<ellipse cx="1.57443" cy="1.6603" rx="1.57443" ry="1.6603" transform="matrix(-0.999994 0.00341659 -0.00307231 -0.999995 4.62891 34.313)"/>
</mask>
<ellipse cx="1.57443" cy="1.6603" rx="1.57443" ry="1.6603" transform="matrix(-0.999994 0.00341659 -0.00307231 -0.999995 4.62891 34.313)" fill="white"/>
<path d="M3.47494 32.6566C3.47513 32.716 3.45119 32.792 3.38795 32.8591C3.32297 32.9281 3.2033 32.9972 3.05042 32.9978L3.03814 28.9978C0.965292 29.0049 -0.530931 30.7502 -0.525032 32.6703L3.47494 32.6566ZM3.05042 32.9978C2.89755 32.9983 2.77745 32.9299 2.71205 32.8614C2.64841 32.7947 2.624 32.7189 2.62382 32.6595L6.62379 32.6459C6.61789 30.7257 5.11098 28.9907 3.03814 28.9978L3.05042 32.9978ZM2.62382 32.6595C2.62363 32.6002 2.64758 32.5242 2.71081 32.4571C2.77579 32.3881 2.89546 32.3189 3.04834 32.3184L3.06063 36.3184C5.13347 36.3113 6.62969 34.566 6.62379 32.6459L2.62382 32.6595ZM3.04834 32.3184C3.20122 32.3179 3.32131 32.3862 3.38671 32.4547C3.45035 32.5214 3.47476 32.5973 3.47494 32.6566L-0.525032 32.6703C-0.519133 34.5904 0.987784 36.3254 3.06063 36.3184L3.04834 32.3184Z" fill="black" mask="url(#path-24-inside-4_438_211)"/>
<mask id="path-26-inside-5_438_211" fill="white">
<ellipse cx="1.57443" cy="1.6603" rx="1.57443" ry="1.6603" transform="matrix(-0.999994 0.00341659 -0.00307231 -0.999995 3.15918 40.7329)"/>
</mask>
<ellipse cx="1.57443" cy="1.6603" rx="1.57443" ry="1.6603" transform="matrix(-0.999994 0.00341659 -0.00307231 -0.999995 3.15918 40.7329)" fill="white"/>
<path d="M2.00522 39.0765C2.0054 39.1359 1.98146 39.2119 1.91823 39.279C1.85325 39.348 1.73358 39.4172 1.5807 39.4177L1.56841 35.4177C-0.504434 35.4248 -2.00066 37.1701 -1.99476 39.0902L2.00522 39.0765ZM1.5807 39.4177C1.42782 39.4182 1.30773 39.3498 1.24233 39.2813C1.17868 39.2146 1.15427 39.1388 1.15409 39.0794L5.15407 39.0658C5.14817 37.1457 3.64125 35.4106 1.56841 35.4177L1.5807 39.4177ZM1.15409 39.0794C1.15391 39.0201 1.17785 38.9441 1.24108 38.877C1.30606 38.808 1.42573 38.7388 1.57861 38.7383L1.5909 42.7383C3.66374 42.7312 5.15997 40.9859 5.15407 39.0658L1.15409 39.0794ZM1.57861 38.7383C1.73149 38.7378 1.85158 38.8061 1.91698 38.8747C1.98063 38.9413 2.00504 39.0172 2.00522 39.0765L-1.99476 39.0902C-1.98886 41.0103 -0.481943 42.7454 1.5909 42.7383L1.57861 38.7383Z" fill="black" mask="url(#path-26-inside-5_438_211)"/>
<mask id="path-28-inside-6_438_211" fill="white">
<ellipse cx="1.57443" cy="1.6603" rx="1.57443" ry="1.6603" transform="matrix(-0.999994 0.00341659 -0.00307231 -0.999995 4.20862 47.8169)"/>
</mask>
<ellipse cx="1.57443" cy="1.6603" rx="1.57443" ry="1.6603" transform="matrix(-0.999994 0.00341659 -0.00307231 -0.999995 4.20862 47.8169)" fill="white"/>
<path d="M3.05466 46.1605C3.05484 46.2199 3.0309 46.2959 2.96766 46.363C2.90268 46.432 2.78301 46.5011 2.63014 46.5017L2.61785 42.5017C0.545004 42.5088 -0.951219 44.2541 -0.94532 46.1742L3.05466 46.1605ZM2.63014 46.5017C2.47726 46.5022 2.35717 46.4338 2.29176 46.3653C2.22812 46.2986 2.20371 46.2228 2.20353 46.1634L6.20351 46.1498C6.19761 44.2296 4.69069 42.4946 2.61785 42.5017L2.63014 46.5017ZM2.20353 46.1634C2.20335 46.1041 2.22729 46.0281 2.29052 45.961C2.3555 45.892 2.47517 45.8228 2.62805 45.8223L2.64034 49.8223C4.71318 49.8152 6.2094 48.0699 6.20351 46.1498L2.20353 46.1634ZM2.62805 45.8223C2.78093 45.8218 2.90102 45.8901 2.96642 45.9586C3.03007 46.0253 3.05447 46.1012 3.05466 46.1605L-0.94532 46.1742C-0.939421 48.0943 0.567496 49.8293 2.64034 49.8223L2.62805 45.8223Z" fill="black" mask="url(#path-28-inside-6_438_211)"/>
<mask id="path-30-inside-7_438_211" fill="white">
<ellipse cx="98.3502" cy="18.7062" rx="1.57443" ry="1.66031"/>
</mask>
<ellipse cx="98.3502" cy="18.7062" rx="1.57443" ry="1.66031" fill="white"/>
<path d="M97.9246 18.7062C97.9246 18.6469 97.9488 18.5709 98.0122 18.504C98.0774 18.4353 98.1973 18.3665 98.3502 18.3665V22.3665C100.423 22.3665 101.925 20.6263 101.925 18.7062H97.9246ZM98.3502 18.3665C98.5031 18.3665 98.623 18.4353 98.6881 18.504C98.7516 18.5709 98.7758 18.6469 98.7758 18.7062H94.7758C94.7758 20.6263 96.2773 22.3665 98.3502 22.3665V18.3665ZM98.7758 18.7062C98.7758 18.7656 98.7516 18.8415 98.6881 18.9084C98.623 18.9771 98.5031 19.0459 98.3502 19.0459V15.0459C96.2773 15.0459 94.7758 16.7861 94.7758 18.7062H98.7758ZM98.3502 19.0459C98.1973 19.0459 98.0774 18.9771 98.0122 18.9084C97.9488 18.8415 97.9246 18.7656 97.9246 18.7062H101.925C101.925 16.7861 100.423 15.0459 98.3502 15.0459V19.0459Z" fill="black" mask="url(#path-30-inside-7_438_211)"/>
<mask id="path-32-inside-8_438_211" fill="white">
<ellipse cx="104.647" cy="31.5456" rx="1.57443" ry="1.66031"/>
</mask>
<ellipse cx="104.647" cy="31.5456" rx="1.57443" ry="1.66031" fill="white"/>
<path d="M104.222 31.5456C104.222 31.4862 104.246 31.4103 104.309 31.3434C104.375 31.2746 104.494 31.2059 104.647 31.2059V35.2059C106.72 35.2059 108.222 33.4657 108.222 31.5456H104.222ZM104.647 31.2059C104.8 31.2059 104.92 31.2746 104.985 31.3434C105.049 31.4103 105.073 31.4862 105.073 31.5456H101.073C101.073 33.4657 102.574 35.2059 104.647 35.2059V31.2059ZM105.073 31.5456C105.073 31.6049 105.049 31.6808 104.985 31.7477C104.92 31.8165 104.8 31.8853 104.647 31.8853V27.8853C102.574 27.8853 101.073 29.6254 101.073 31.5456H105.073ZM104.647 31.8853C104.494 31.8853 104.375 31.8165 104.309 31.7477C104.246 31.6808 104.222 31.6049 104.222 31.5456H108.222C108.222 29.6254 106.72 27.8853 104.647 27.8853V31.8853Z" fill="black" mask="url(#path-32-inside-8_438_211)"/>
<mask id="path-34-inside-9_438_211" fill="white">
<ellipse cx="108.426" cy="37.3019" rx="1.57443" ry="1.66031"/>
</mask>
<ellipse cx="108.426" cy="37.3019" rx="1.57443" ry="1.66031" fill="white"/>
<path d="M108 37.3019C108 37.2426 108.024 37.1666 108.088 37.0997C108.153 37.031 108.273 36.9622 108.426 36.9622V40.9622C110.498 40.9622 112 39.222 112 37.3019H108ZM108.426 36.9622C108.579 36.9622 108.698 37.031 108.764 37.0997C108.827 37.1666 108.851 37.2426 108.851 37.3019H104.851C104.851 39.222 106.353 40.9622 108.426 40.9622V36.9622ZM108.851 37.3019C108.851 37.3613 108.827 37.4372 108.764 37.5041C108.698 37.5728 108.579 37.6416 108.426 37.6416V33.6416C106.353 33.6416 104.851 35.3818 104.851 37.3019H108.851ZM108.426 37.6416C108.273 37.6416 108.153 37.5728 108.088 37.5041C108.024 37.4372 108 37.3613 108 37.3019H112C112 35.3818 110.498 33.6416 108.426 33.6416V37.6416Z" fill="black" mask="url(#path-34-inside-9_438_211)"/>
<mask id="path-36-inside-10_438_211" fill="white">
<ellipse cx="79.2467" cy="64.0876" rx="1.57443" ry="1.66031"/>
</mask>
<ellipse cx="79.2467" cy="64.0876" rx="1.57443" ry="1.66031" fill="white"/>
<path d="M78.8211 64.0876C78.8211 64.0282 78.8453 63.9523 78.9087 63.8854C78.9739 63.8166 79.0938 63.7479 79.2467 63.7479V67.7479C81.3195 67.7479 82.8211 66.0077 82.8211 64.0876H78.8211ZM79.2467 63.7479C79.3996 63.7479 79.5194 63.8166 79.5846 63.8854C79.6481 63.9523 79.6722 64.0282 79.6722 64.0876H75.6722C75.6722 66.0077 77.1738 67.7479 79.2467 67.7479V63.7479ZM79.6722 64.0876C79.6722 64.1469 79.6481 64.2228 79.5846 64.2897C79.5194 64.3585 79.3996 64.4272 79.2467 64.4272V60.4272C77.1738 60.4272 75.6722 62.1674 75.6722 64.0876H79.6722ZM79.2467 64.4272C79.0938 64.4272 78.9739 64.3585 78.9087 64.2897C78.8453 64.2228 78.8211 64.1469 78.8211 64.0876H82.8211C82.8211 62.1674 81.3195 60.4272 79.2467 60.4272V64.4272Z" fill="black" mask="url(#path-36-inside-10_438_211)"/>
<mask id="path-38-inside-11_438_211" fill="white">
<ellipse cx="73.3684" cy="66.7443" rx="1.57443" ry="1.66031"/>
</mask>
<ellipse cx="73.3684" cy="66.7443" rx="1.57443" ry="1.66031" fill="white"/>
<path d="M72.9428 66.7443C72.9428 66.6849 72.967 66.609 73.0304 66.5421C73.0956 66.4734 73.2155 66.4046 73.3684 66.4046V70.4046C75.4412 70.4046 76.9428 68.6644 76.9428 66.7443H72.9428ZM73.3684 66.4046C73.5213 66.4046 73.6411 66.4734 73.7063 66.5421C73.7698 66.609 73.7939 66.6849 73.7939 66.7443H69.7939C69.7939 68.6644 71.2955 70.4046 73.3684 70.4046V66.4046ZM73.7939 66.7443C73.7939 66.8036 73.7698 66.8796 73.7063 66.9465C73.6411 67.0152 73.5213 67.084 73.3684 67.084V63.084C71.2955 63.084 69.7939 64.8242 69.7939 66.7443H73.7939ZM73.3684 67.084C73.2155 67.084 73.0956 67.0152 73.0304 66.9465C72.967 66.8796 72.9428 66.8036 72.9428 66.7443H76.9428C76.9428 64.8242 75.4412 63.084 73.3684 63.084V67.084Z" fill="black" mask="url(#path-38-inside-11_438_211)"/>
<mask id="path-40-inside-12_438_211" fill="white">
<ellipse cx="68.5406" cy="69.8434" rx="1.57443" ry="1.66031"/>
</mask>
<ellipse cx="68.5406" cy="69.8434" rx="1.57443" ry="1.66031" fill="white"/>
<path d="M68.1151 69.8434C68.1151 69.7841 68.1392 69.7081 68.2027 69.6412C68.2679 69.5725 68.3877 69.5037 68.5406 69.5037V73.5037C70.6135 73.5037 72.1151 71.7635 72.1151 69.8434H68.1151ZM68.5406 69.5037C68.6935 69.5037 68.8134 69.5725 68.8786 69.6412C68.942 69.7081 68.9662 69.7841 68.9662 69.8434H64.9662C64.9662 71.7635 66.4678 73.5037 68.5406 73.5037V69.5037ZM68.9662 69.8434C68.9662 69.9028 68.942 69.9787 68.8786 70.0456C68.8134 70.1143 68.6935 70.1831 68.5406 70.1831V66.1831C66.4678 66.1831 64.9662 67.9233 64.9662 69.8434H68.9662ZM68.5406 70.1831C68.3877 70.1831 68.2679 70.1143 68.2027 70.0456C68.1392 69.9787 68.1151 69.9028 68.1151 69.8434H72.1151C72.1151 67.9233 70.6135 66.1831 68.5406 66.1831V70.1831Z" fill="black" mask="url(#path-40-inside-12_438_211)"/>
<mask id="path-42-inside-13_438_211" fill="white">
<ellipse cx="62.243" cy="67.1872" rx="1.57443" ry="1.66031"/>
</mask>
<ellipse cx="62.243" cy="67.1872" rx="1.57443" ry="1.66031" fill="white"/>
<path d="M61.8174 67.1872C61.8174 67.1278 61.8416 67.0519 61.9051 66.985C61.9703 66.9162 62.0901 66.8475 62.243 66.8475V70.8475C64.3159 70.8475 65.8174 69.1073 65.8174 67.1872H61.8174ZM62.243 66.8475C62.3959 66.8475 62.5158 66.9162 62.581 66.985C62.6444 67.0519 62.6686 67.1278 62.6686 67.1872H58.6686C58.6686 69.1073 60.1702 70.8475 62.243 70.8475V66.8475ZM62.6686 67.1872C62.6686 67.2465 62.6444 67.3224 62.581 67.3893C62.5158 67.4581 62.3959 67.5269 62.243 67.5269V63.5269C60.1702 63.5269 58.6686 65.267 58.6686 67.1872H62.6686ZM62.243 67.5269C62.0901 67.5269 61.9703 67.4581 61.9051 67.3893C61.8416 67.3224 61.8174 67.2465 61.8174 67.1872H65.8174C65.8174 65.267 64.3159 63.5269 62.243 63.5269V67.5269Z" fill="black" mask="url(#path-42-inside-13_438_211)"/>
<mask id="path-44-inside-14_438_211" fill="white">
<ellipse cx="54.0551" cy="70.9503" rx="1.57443" ry="1.66031"/>
</mask>
<ellipse cx="54.0551" cy="70.9503" rx="1.57443" ry="1.66031" fill="white"/>
<path d="M53.6296 70.9503C53.6296 70.891 53.6538 70.8151 53.7172 70.7482C53.7824 70.6794 53.9023 70.6106 54.0551 70.6106V74.6107C56.128 74.6107 57.6296 72.8705 57.6296 70.9503H53.6296ZM54.0551 70.6106C54.208 70.6106 54.3279 70.6794 54.3931 70.7482C54.4565 70.8151 54.4807 70.891 54.4807 70.9503H50.4807C50.4807 72.8705 51.9823 74.6107 54.0551 74.6107V70.6106ZM54.4807 70.9503C54.4807 71.0097 54.4565 71.0856 54.3931 71.1525C54.3279 71.2213 54.208 71.29 54.0551 71.29V67.29C51.9823 67.29 50.4807 69.0302 50.4807 70.9503H54.4807ZM54.0551 71.29C53.9023 71.29 53.7824 71.2213 53.7172 71.1525C53.6538 71.0856 53.6296 71.0097 53.6296 70.9503H57.6296C57.6296 69.0302 56.128 67.29 54.0551 67.29V71.29Z" fill="black" mask="url(#path-44-inside-14_438_211)"/>
<mask id="path-46-inside-15_438_211" fill="white">
<ellipse cx="46.4985" cy="62.9806" rx="1.57443" ry="1.66031"/>
</mask>
<ellipse cx="46.4985" cy="62.9806" rx="1.57443" ry="1.66031" fill="white"/>
<path d="M46.0729 62.9806C46.0729 62.9213 46.0971 62.8453 46.1606 62.7784C46.2257 62.7097 46.3456 62.6409 46.4985 62.6409V66.6409C48.5714 66.6409 50.0729 64.9007 50.0729 62.9806H46.0729ZM46.4985 62.6409C46.6514 62.6409 46.7713 62.7097 46.8365 62.7784C46.8999 62.8453 46.9241 62.9213 46.9241 62.9806H42.9241C42.9241 64.9007 44.4256 66.6409 46.4985 66.6409V62.6409ZM46.9241 62.9806C46.9241 63.04 46.8999 63.1159 46.8365 63.1828C46.7713 63.2515 46.6514 63.3203 46.4985 63.3203V59.3203C44.4256 59.3203 42.9241 61.0605 42.9241 62.9806H46.9241ZM46.4985 63.3203C46.3456 63.3203 46.2257 63.2515 46.1606 63.1828C46.0971 63.1159 46.0729 63.04 46.0729 62.9806H50.0729C50.0729 61.0605 48.5714 59.3203 46.4985 59.3203V63.3203Z" fill="black" mask="url(#path-46-inside-15_438_211)"/>
<mask id="path-48-inside-16_438_211" fill="white">
<ellipse cx="41.0401" cy="70.9503" rx="1.57443" ry="1.66031"/>
</mask>
<ellipse cx="41.0401" cy="70.9503" rx="1.57443" ry="1.66031" fill="white"/>
<path d="M40.6146 70.9503C40.6146 70.891 40.6387 70.8151 40.7022 70.7482C40.7674 70.6794 40.8873 70.6106 41.0401 70.6106V74.6107C43.113 74.6107 44.6146 72.8705 44.6146 70.9503H40.6146ZM41.0401 70.6106C41.193 70.6106 41.3129 70.6794 41.3781 70.7482C41.4415 70.8151 41.4657 70.891 41.4657 70.9503H37.4657C37.4657 72.8705 38.9673 74.6107 41.0401 74.6107V70.6106ZM41.4657 70.9503C41.4657 71.0097 41.4415 71.0856 41.3781 71.1525C41.3129 71.2213 41.193 71.29 41.0401 71.29V67.29C38.9673 67.29 37.4657 69.0302 37.4657 70.9503H41.4657ZM41.0401 71.29C40.8873 71.29 40.7674 71.2213 40.7022 71.1525C40.6387 71.0856 40.6146 71.0097 40.6146 70.9503H44.6146C44.6146 69.0302 43.113 67.29 41.0401 67.29V71.29Z" fill="black" mask="url(#path-48-inside-16_438_211)"/>
<mask id="path-50-inside-17_438_211" fill="white">
<ellipse cx="33.9027" cy="64.0876" rx="1.57443" ry="1.66031"/>
</mask>
<ellipse cx="33.9027" cy="64.0876" rx="1.57443" ry="1.66031" fill="white"/>
<path d="M33.4771 64.0876C33.4771 64.0282 33.5013 63.9523 33.5647 63.8854C33.6299 63.8166 33.7498 63.7479 33.9027 63.7479V67.7479C35.9755 67.7479 37.4771 66.0077 37.4771 64.0876H33.4771ZM33.9027 63.7479C34.0556 63.7479 34.1754 63.8166 34.2406 63.8854C34.3041 63.9523 34.3282 64.0282 34.3282 64.0876H30.3282C30.3282 66.0077 31.8298 67.7479 33.9027 67.7479V63.7479ZM34.3282 64.0876C34.3282 64.1469 34.3041 64.2228 34.2406 64.2897C34.1754 64.3585 34.0556 64.4272 33.9027 64.4272V60.4272C31.8298 60.4272 30.3282 62.1674 30.3282 64.0876H34.3282ZM33.9027 64.4272C33.7498 64.4272 33.6299 64.3585 33.5647 64.2897C33.5013 64.2228 33.4771 64.1469 33.4771 64.0876H37.4771C37.4771 62.1674 35.9755 60.4272 33.9027 60.4272V64.4272Z" fill="black" mask="url(#path-50-inside-17_438_211)"/>
<mask id="path-52-inside-18_438_211" fill="white">
<ellipse cx="104.857" cy="46.3781" rx="1.57443" ry="1.66031"/>
</mask>
<ellipse cx="104.857" cy="46.3781" rx="1.57443" ry="1.66031" fill="white"/>
<path d="M104.431 46.3781C104.431 46.3187 104.456 46.2428 104.519 46.1759C104.584 46.1072 104.704 46.0384 104.857 46.0384V50.0384C106.93 50.0384 108.431 48.2982 108.431 46.3781H104.431ZM104.857 46.0384C105.01 46.0384 105.13 46.1072 105.195 46.1759C105.258 46.2428 105.282 46.3187 105.282 46.3781H101.282C101.282 48.2982 102.784 50.0384 104.857 50.0384V46.0384ZM105.282 46.3781C105.282 46.4374 105.258 46.5134 105.195 46.5803C105.13 46.649 105.01 46.7178 104.857 46.7178V42.7178C102.784 42.7178 101.282 44.458 101.282 46.3781H105.282ZM104.857 46.7178C104.704 46.7178 104.584 46.649 104.519 46.5803C104.456 46.5134 104.431 46.4374 104.431 46.3781H108.431C108.431 44.458 106.93 42.7178 104.857 42.7178V46.7178Z" fill="black" mask="url(#path-52-inside-18_438_211)"/>
<rect x="78.8788" y="52.1691" width="0.734735" height="10.1126" rx="0.367368" fill="#0FDBFF" stroke="black" stroke-width="0.734735"/>
<rect x="73.001" y="52.1691" width="0.734735" height="12.7691" rx="0.367368" fill="#0FDBFF" stroke="black" stroke-width="0.734735"/>
<rect x="68.1728" y="52.1691" width="0.734735" height="15.6469" rx="0.367368" fill="white" stroke="black" stroke-width="0.734735"/>
<rect x="61.8752" y="52.1691" width="0.734735" height="13.2118" rx="0.367368" fill="#0FDBFF" stroke="black" stroke-width="0.734735"/>
<rect x="53.6879" y="52.1691" width="0.734735" height="16.9752" rx="0.367368" fill="#0FDBFF" stroke="black" stroke-width="0.734735"/>
<rect x="46.1307" y="52.1691" width="0.734735" height="9.00572" rx="0.367368" fill="white" stroke="black" stroke-width="0.734735"/>
<rect x="40.6728" y="52.1691" width="0.734735" height="16.9752" rx="0.367368" fill="white" stroke="black" stroke-width="0.734735"/>
<rect x="33.5355" y="52.1691" width="0.734735" height="10.1126" rx="0.367368" fill="white" stroke="black" stroke-width="0.734735"/>
<mask id="path-62-outside-19_438_211" maskUnits="userSpaceOnUse" x="25.2896" y="16.8406" width="59.5227" height="30.0893" fill="black">
<rect fill="white" x="25.2896" y="16.8406" width="59.5227" height="30.0893"/>
<path d="M30.9645 41.3807C29.7516 41.2939 28.7676 40.8063 28.0125 39.9182C27.2574 39.03 26.9367 37.7024 27.0505 35.9354C27.1519 34.36 27.5667 32.7321 28.2949 31.0519C29.0457 29.3519 30.0765 27.95 31.3875 26.8462C32.7211 25.7226 34.2497 25.2225 35.9733 25.346C36.8457 25.4085 37.4851 25.604 37.8915 25.9325C38.2979 26.261 38.4853 26.6701 38.4537 27.1598L38.4394 27.3833L38.8994 25.7159L43.4957 26.0451L40.4984 36.738C40.3927 37.0513 40.3282 37.3889 40.3049 37.7508C40.2775 38.1766 40.3533 38.4921 40.5325 38.6974C40.7343 38.883 41.0693 38.9925 41.5374 39.026C41.8353 39.0474 42.0721 39.0216 42.2479 38.9486C41.7029 40.1073 41.2019 40.9162 40.7448 41.3754C40.2891 41.8132 39.6569 42.0032 38.8483 41.9453C37.9759 41.8829 37.2795 41.5763 36.7592 41.0258C36.2615 40.4554 35.9789 39.6973 35.9116 38.7515C34.4861 40.6384 32.8371 41.5148 30.9645 41.3807ZM33.2387 38.4317C33.7707 38.4698 34.3078 38.2623 34.85 37.8093C35.4149 37.3364 35.8211 36.6704 36.0689 35.8113L38.0657 28.7039C38.0835 28.4272 37.9943 28.1534 37.7979 27.8827C37.603 27.5907 37.2821 27.4287 36.8352 27.3967C35.9841 27.3358 35.1858 27.7812 34.4404 28.733C33.6965 29.6636 33.0877 30.8177 32.6142 32.1953C32.1421 33.5517 31.8717 34.7621 31.8032 35.8266C31.7346 36.8911 31.8397 37.583 32.1184 37.9024C32.4184 38.2233 32.7918 38.3997 33.2387 38.4317ZM48.9697 24.0952C48.4164 24.0556 47.9599 23.8411 47.6002 23.4517C47.2632 23.0426 47.1125 22.5613 47.1481 22.0078C47.1824 21.4756 47.3927 21.0308 47.7791 20.6735C48.1868 20.3177 48.6673 20.1596 49.2206 20.1993C49.7525 20.2374 50.1977 20.4617 50.556 20.8724C50.9144 21.283 51.0764 21.7544 51.0421 22.2867C51.0065 22.8402 50.7848 23.2948 50.3771 23.6506C49.9708 23.9851 49.5016 24.1333 48.9697 24.0952ZM54.715 24.5066C54.1617 24.467 53.7052 24.2525 53.3455 23.8632C53.0084 23.4541 52.8577 22.9728 52.8934 22.4192C52.9277 21.887 53.138 21.4422 53.5244 21.0849C53.9321 20.7292 54.4126 20.5711 54.9658 20.6107C55.4978 20.6488 55.943 20.8732 56.3013 21.2838C56.6597 21.6945 56.8217 22.1659 56.7874 22.6981C56.7518 23.2516 56.5301 23.7063 56.1224 24.0621C55.7161 24.3965 55.2469 24.5447 54.715 24.5066ZM46.5341 42.4958C44.9808 42.3845 43.7939 41.8932 42.9736 41.0217C42.1546 40.1289 41.8014 38.8097 41.9138 37.064C42.0084 35.595 42.3999 33.9976 43.0882 32.2717C43.7765 30.5459 44.8108 29.0907 46.1911 27.9063C47.5727 26.7007 49.2636 26.1694 51.2638 26.3127C53.6045 26.4803 54.709 27.586 54.5774 29.6298C54.5006 30.822 54.0896 31.894 53.3442 32.8458C52.5989 33.7976 51.6424 34.5419 50.4749 35.0785C49.3087 35.5938 48.0845 35.8484 46.8023 35.8421C46.7296 36.3074 46.6877 36.6252 46.6768 36.7955C46.563 38.5625 47.1657 39.4933 48.485 39.5878C49.0808 39.6304 49.7295 39.5165 50.431 39.2459C51.1324 38.9753 51.7756 38.615 52.3604 38.165C51.5829 41.2747 49.6409 42.7182 46.5341 42.4958ZM47.1244 34.3253C47.9344 34.3619 48.7069 34.1499 49.442 33.6892C50.1984 33.2301 50.8148 32.6219 51.2911 31.8647C51.79 31.0877 52.0676 30.2628 52.1238 29.3899C52.18 28.517 51.9422 28.0616 51.4102 28.0235C50.6654 27.9701 49.8768 28.5981 49.0443 29.9072C48.2344 31.1966 47.5945 32.6693 47.1244 34.3253ZM56.8824 43.2368C55.861 43.1637 55.0517 42.7849 54.4545 42.1005C53.8785 41.4177 53.6317 40.4376 53.7139 39.1602C53.7482 38.628 53.8779 37.9422 54.1029 37.1028L56.5959 28.2665L55.5426 28.1911L55.8802 26.932L56.9335 27.0075L58.1749 22.6692L62.9399 22.3688L61.5297 27.3366L63.4448 27.4738L63.1072 28.7328L61.1921 28.5957L58.5324 38.0295C58.4267 38.3428 58.3622 38.6804 58.3389 39.0423C58.3115 39.4681 58.3874 39.7836 58.5666 39.9889C58.7684 40.1745 59.1034 40.284 59.5715 40.3176C60.1886 40.3617 60.7796 40.1474 61.3444 39.6746C61.9107 39.1804 62.3376 38.5266 62.6251 37.7131L63.9657 37.8091C63.0303 40.052 61.9188 41.5443 60.6311 42.2862C59.3449 43.0068 58.0953 43.3237 56.8824 43.2368ZM68.7139 26.1187C68.0117 26.0684 67.4317 25.7809 66.9738 25.2562C66.5159 24.7315 66.3096 24.1179 66.3548 23.4154C66.4001 22.7128 66.6832 22.1343 67.2041 21.6797C67.7264 21.2038 68.3387 20.991 69.0409 21.0412C69.7431 21.0915 70.3225 21.3897 70.779 21.9357C71.2581 22.4619 71.4751 23.0763 71.4298 23.7788C71.3846 24.4814 71.0909 25.0592 70.5486 25.5123C70.0277 25.9669 69.4161 26.169 68.7139 26.1187ZM65.3599 43.844C64.3385 43.7708 63.5392 43.4035 62.9619 42.7419C62.3859 42.059 62.1391 41.0789 62.2213 39.8015C62.2528 39.3119 62.3832 38.6154 62.6124 37.7122L65.443 27.6169L70.0392 27.946L67.0419 38.6389C66.9362 38.9522 66.8717 39.2898 66.8484 39.6517C66.799 40.4181 67.2425 40.8348 68.1788 40.9019C68.9661 40.9583 69.8563 40.744 70.8495 40.259C71.8654 39.7543 72.7312 39.0892 73.4471 38.2635L72.2735 28.106L76.7739 28.4283L77.5746 35.4152C78.5979 34.4619 79.4044 33.5572 79.9939 32.7011C80.5835 31.8451 80.8968 31.1297 80.9338 30.5549C80.9461 30.3633 80.9437 30.2348 80.9265 30.1694C80.6259 30.1906 80.4436 30.1989 80.3798 30.1944C79.8478 30.1563 79.4751 29.9692 79.2616 29.6331C79.0495 29.2757 78.9605 28.8309 78.9948 28.2986C79.025 27.8303 79.2185 27.4806 79.5754 27.2495C79.9337 26.9971 80.3682 26.8892 80.8789 26.9258C81.5598 26.9745 82.0747 27.2787 82.4234 27.8384C82.7721 28.3981 82.9198 29.093 82.8663 29.9233C82.8005 30.9452 82.3675 32.0263 81.5672 33.1667C80.7896 34.2873 79.5381 35.6307 77.8125 37.1967L77.997 38.814C78.1199 39.8921 78.2854 40.6419 78.4935 41.0631C78.7228 41.4859 79.1672 41.7209 79.8269 41.7681C80.2099 41.7956 80.5545 41.7561 80.8606 41.6497C80.7069 42.7081 80.2711 43.5003 79.5532 44.0263C78.8579 44.5326 78.0528 44.753 77.1378 44.6874C76.1377 44.6158 75.3822 44.2302 74.8715 43.5306C74.3834 42.8113 73.9986 41.6502 73.717 40.0473C72.5083 41.2226 71.1538 42.1736 69.6533 42.9003C68.1742 43.6285 66.7431 43.943 65.3599 43.844Z"/>
</mask>
<path d="M30.9645 41.3807C29.7516 41.2939 28.7676 40.8063 28.0125 39.9182C27.2574 39.03 26.9367 37.7024 27.0505 35.9354C27.1519 34.36 27.5667 32.7321 28.2949 31.0519C29.0457 29.3519 30.0765 27.95 31.3875 26.8462C32.7211 25.7226 34.2497 25.2225 35.9733 25.346C36.8457 25.4085 37.4851 25.604 37.8915 25.9325C38.2979 26.261 38.4853 26.6701 38.4537 27.1598L38.4394 27.3833L38.8994 25.7159L43.4957 26.0451L40.4984 36.738C40.3927 37.0513 40.3282 37.3889 40.3049 37.7508C40.2775 38.1766 40.3533 38.4921 40.5325 38.6974C40.7343 38.883 41.0693 38.9925 41.5374 39.026C41.8353 39.0474 42.0721 39.0216 42.2479 38.9486C41.7029 40.1073 41.2019 40.9162 40.7448 41.3754C40.2891 41.8132 39.6569 42.0032 38.8483 41.9453C37.9759 41.8829 37.2795 41.5763 36.7592 41.0258C36.2615 40.4554 35.9789 39.6973 35.9116 38.7515C34.4861 40.6384 32.8371 41.5148 30.9645 41.3807ZM33.2387 38.4317C33.7707 38.4698 34.3078 38.2623 34.85 37.8093C35.4149 37.3364 35.8211 36.6704 36.0689 35.8113L38.0657 28.7039C38.0835 28.4272 37.9943 28.1534 37.7979 27.8827C37.603 27.5907 37.2821 27.4287 36.8352 27.3967C35.9841 27.3358 35.1858 27.7812 34.4404 28.733C33.6965 29.6636 33.0877 30.8177 32.6142 32.1953C32.1421 33.5517 31.8717 34.7621 31.8032 35.8266C31.7346 36.8911 31.8397 37.583 32.1184 37.9024C32.4184 38.2233 32.7918 38.3997 33.2387 38.4317ZM48.9697 24.0952C48.4164 24.0556 47.9599 23.8411 47.6002 23.4517C47.2632 23.0426 47.1125 22.5613 47.1481 22.0078C47.1824 21.4756 47.3927 21.0308 47.7791 20.6735C48.1868 20.3177 48.6673 20.1596 49.2206 20.1993C49.7525 20.2374 50.1977 20.4617 50.556 20.8724C50.9144 21.283 51.0764 21.7544 51.0421 22.2867C51.0065 22.8402 50.7848 23.2948 50.3771 23.6506C49.9708 23.9851 49.5016 24.1333 48.9697 24.0952ZM54.715 24.5066C54.1617 24.467 53.7052 24.2525 53.3455 23.8632C53.0084 23.4541 52.8577 22.9728 52.8934 22.4192C52.9277 21.887 53.138 21.4422 53.5244 21.0849C53.9321 20.7292 54.4126 20.5711 54.9658 20.6107C55.4978 20.6488 55.943 20.8732 56.3013 21.2838C56.6597 21.6945 56.8217 22.1659 56.7874 22.6981C56.7518 23.2516 56.5301 23.7063 56.1224 24.0621C55.7161 24.3965 55.2469 24.5447 54.715 24.5066ZM46.5341 42.4958C44.9808 42.3845 43.7939 41.8932 42.9736 41.0217C42.1546 40.1289 41.8014 38.8097 41.9138 37.064C42.0084 35.595 42.3999 33.9976 43.0882 32.2717C43.7765 30.5459 44.8108 29.0907 46.1911 27.9063C47.5727 26.7007 49.2636 26.1694 51.2638 26.3127C53.6045 26.4803 54.709 27.586 54.5774 29.6298C54.5006 30.822 54.0896 31.894 53.3442 32.8458C52.5989 33.7976 51.6424 34.5419 50.4749 35.0785C49.3087 35.5938 48.0845 35.8484 46.8023 35.8421C46.7296 36.3074 46.6877 36.6252 46.6768 36.7955C46.563 38.5625 47.1657 39.4933 48.485 39.5878C49.0808 39.6304 49.7295 39.5165 50.431 39.2459C51.1324 38.9753 51.7756 38.615 52.3604 38.165C51.5829 41.2747 49.6409 42.7182 46.5341 42.4958ZM47.1244 34.3253C47.9344 34.3619 48.7069 34.1499 49.442 33.6892C50.1984 33.2301 50.8148 32.6219 51.2911 31.8647C51.79 31.0877 52.0676 30.2628 52.1238 29.3899C52.18 28.517 51.9422 28.0616 51.4102 28.0235C50.6654 27.9701 49.8768 28.5981 49.0443 29.9072C48.2344 31.1966 47.5945 32.6693 47.1244 34.3253ZM56.8824 43.2368C55.861 43.1637 55.0517 42.7849 54.4545 42.1005C53.8785 41.4177 53.6317 40.4376 53.7139 39.1602C53.7482 38.628 53.8779 37.9422 54.1029 37.1028L56.5959 28.2665L55.5426 28.1911L55.8802 26.932L56.9335 27.0075L58.1749 22.6692L62.9399 22.3688L61.5297 27.3366L63.4448 27.4738L63.1072 28.7328L61.1921 28.5957L58.5324 38.0295C58.4267 38.3428 58.3622 38.6804 58.3389 39.0423C58.3115 39.4681 58.3874 39.7836 58.5666 39.9889C58.7684 40.1745 59.1034 40.284 59.5715 40.3176C60.1886 40.3617 60.7796 40.1474 61.3444 39.6746C61.9107 39.1804 62.3376 38.5266 62.6251 37.7131L63.9657 37.8091C63.0303 40.052 61.9188 41.5443 60.6311 42.2862C59.3449 43.0068 58.0953 43.3237 56.8824 43.2368ZM68.7139 26.1187C68.0117 26.0684 67.4317 25.7809 66.9738 25.2562C66.5159 24.7315 66.3096 24.1179 66.3548 23.4154C66.4001 22.7128 66.6832 22.1343 67.2041 21.6797C67.7264 21.2038 68.3387 20.991 69.0409 21.0412C69.7431 21.0915 70.3225 21.3897 70.779 21.9357C71.2581 22.4619 71.4751 23.0763 71.4298 23.7788C71.3846 24.4814 71.0909 25.0592 70.5486 25.5123C70.0277 25.9669 69.4161 26.169 68.7139 26.1187ZM65.3599 43.844C64.3385 43.7708 63.5392 43.4035 62.9619 42.7419C62.3859 42.059 62.1391 41.0789 62.2213 39.8015C62.2528 39.3119 62.3832 38.6154 62.6124 37.7122L65.443 27.6169L70.0392 27.946L67.0419 38.6389C66.9362 38.9522 66.8717 39.2898 66.8484 39.6517C66.799 40.4181 67.2425 40.8348 68.1788 40.9019C68.9661 40.9583 69.8563 40.744 70.8495 40.259C71.8654 39.7543 72.7312 39.0892 73.4471 38.2635L72.2735 28.106L76.7739 28.4283L77.5746 35.4152C78.5979 34.4619 79.4044 33.5572 79.9939 32.7011C80.5835 31.8451 80.8968 31.1297 80.9338 30.5549C80.9461 30.3633 80.9437 30.2348 80.9265 30.1694C80.6259 30.1906 80.4436 30.1989 80.3798 30.1944C79.8478 30.1563 79.4751 29.9692 79.2616 29.6331C79.0495 29.2757 78.9605 28.8309 78.9948 28.2986C79.025 27.8303 79.2185 27.4806 79.5754 27.2495C79.9337 26.9971 80.3682 26.8892 80.8789 26.9258C81.5598 26.9745 82.0747 27.2787 82.4234 27.8384C82.7721 28.3981 82.9198 29.093 82.8663 29.9233C82.8005 30.9452 82.3675 32.0263 81.5672 33.1667C80.7896 34.2873 79.5381 35.6307 77.8125 37.1967L77.997 38.814C78.1199 39.8921 78.2854 40.6419 78.4935 41.0631C78.7228 41.4859 79.1672 41.7209 79.8269 41.7681C80.2099 41.7956 80.5545 41.7561 80.8606 41.6497C80.7069 42.7081 80.2711 43.5003 79.5532 44.0263C78.8579 44.5326 78.0528 44.753 77.1378 44.6874C76.1377 44.6158 75.3822 44.2302 74.8715 43.5306C74.3834 42.8113 73.9986 41.6502 73.717 40.0473C72.5083 41.2226 71.1538 42.1736 69.6533 42.9003C68.1742 43.6285 66.7431 43.943 65.3599 43.844Z" fill="white"/>
<path d="M28.0125 39.9182L27.2532 40.5634L28.0125 39.9182ZM28.2949 31.0519L27.3802 30.6419L27.3775 30.6483L28.2949 31.0519ZM31.3875 26.8462L32.0341 27.6137L32.0343 27.6135L31.3875 26.8462ZM37.8915 25.9325L38.5161 25.1559L37.8915 25.9325ZM38.4394 27.3833L37.4419 27.3119L39.4029 27.656L38.4394 27.3833ZM38.8994 25.7159L38.9637 24.718L38.152 24.6599L37.9359 25.4432L38.8994 25.7159ZM43.4957 26.0451L44.4582 26.3217L44.7907 25.1353L43.5599 25.0472L43.4957 26.0451ZM40.4984 36.738L41.4456 37.0642L41.4538 37.0396L41.4608 37.0147L40.4984 36.738ZM40.5325 38.6974L39.7818 39.3526L39.8183 39.3944L39.8592 39.4321L40.5325 38.6974ZM42.2479 38.9486L43.1527 39.38L44.259 37.0276L41.8593 38.0241L42.2479 38.9486ZM40.7448 41.3754L41.4396 42.0995L41.4476 42.0919L41.4553 42.0841L40.7448 41.3754ZM36.7592 41.0258L36.0084 41.6809L36.0216 41.696L36.0354 41.7106L36.7592 41.0258ZM35.9116 38.7515L36.9086 38.6874L36.7186 36.0189L35.1128 38.1444L35.9116 38.7515ZM34.85 37.8093L35.4937 38.5792L35.4944 38.5786L34.85 37.8093ZM36.0689 35.8113L37.0294 36.095L37.0312 36.0885L36.0689 35.8113ZM38.0657 28.7039L39.028 28.9811L39.0564 28.8802L39.0632 28.7754L38.0657 28.7039ZM37.7979 27.8827L36.9682 28.4346L36.979 28.4509L36.9905 28.4667L37.7979 27.8827ZM34.4404 28.733L35.2226 29.3616L35.2288 29.3537L34.4404 28.733ZM32.6142 32.1953L33.5583 32.5305L33.5596 32.5268L32.6142 32.1953ZM32.1184 37.9024L31.3677 38.5575L31.379 38.5705L31.3909 38.5832L32.1184 37.9024ZM31.0288 40.3828C30.0708 40.3142 29.3426 39.9443 28.7717 39.2729L27.2532 40.5634C28.1927 41.6684 29.4324 42.2735 30.9003 42.3787L31.0288 40.3828ZM28.7717 39.2729C28.2567 38.6671 27.9423 37.647 28.0479 36.0068L26.053 35.8639C25.9311 37.7577 26.2581 39.3929 27.2532 40.5634L28.7717 39.2729ZM28.0479 36.0068C28.1409 34.563 28.5224 33.0474 29.2123 31.4555L27.3775 30.6483C26.611 32.4169 26.163 34.1569 26.053 35.8639L28.0479 36.0068ZM29.2095 31.4619C29.9044 29.8883 30.8479 28.6125 32.0341 27.6137L30.7409 26.0787C29.3052 27.2875 28.1869 28.8155 27.3802 30.642L29.2095 31.4619ZM32.0343 27.6135C33.1732 26.654 34.4477 26.2393 35.909 26.3439L36.0375 24.348C34.0517 24.2058 32.269 24.7912 30.7407 26.0789L32.0343 27.6135ZM35.909 26.3439C36.7019 26.4007 37.0965 26.5713 37.2668 26.7091L38.5161 25.1559C37.8737 24.6366 36.9894 24.4162 36.0375 24.348L35.909 26.3439ZM37.2668 26.7091C37.4371 26.8467 37.4654 26.9472 37.4563 27.0883L39.4512 27.2312C39.5052 26.393 39.1586 25.6753 38.5161 25.1559L37.2668 26.7091ZM37.4563 27.0883L37.4419 27.3119L39.4368 27.4547L39.4512 27.2312L37.4563 27.0883ZM39.4029 27.656L39.863 25.9887L37.9359 25.4432L37.4758 27.1106L39.4029 27.656ZM38.8352 26.7139L43.4314 27.043L43.5599 25.0472L38.9637 24.718L38.8352 26.7139ZM42.5332 25.7685L39.5359 36.4614L41.4608 37.0147L44.4582 26.3217L42.5332 25.7685ZM39.5511 36.4119C39.4152 36.8148 39.3358 37.2388 39.3074 37.6793L41.3023 37.8222C41.3206 37.5389 41.3701 37.2878 41.4456 37.0642L39.5511 36.4119ZM39.3074 37.6793C39.2724 38.2232 39.35 38.8578 39.7818 39.3526L41.2832 38.0423C41.3196 38.0839 41.3201 38.1092 41.3129 38.0792C41.3046 38.0447 41.2931 37.9647 41.3023 37.8222L39.3074 37.6793ZM39.8592 39.4321C40.3124 39.8487 40.9257 39.9848 41.4732 40.024L41.6017 38.0281C41.4239 38.0154 41.3081 37.9904 41.2394 37.9679C41.1709 37.9455 41.1745 37.9341 41.2058 37.9628L39.8592 39.4321ZM41.4732 40.024C41.8471 40.0508 42.2595 40.0297 42.6364 39.8731L41.8593 38.0241C41.8773 38.0166 41.87 38.023 41.8233 38.0281C41.7771 38.0331 41.705 38.0355 41.6017 38.0281L41.4732 40.024ZM41.343 38.5172C40.8088 39.653 40.3664 40.3331 40.0343 40.6666L41.4553 42.0841C42.0375 41.4993 42.5971 40.5615 43.1527 39.38L41.343 38.5172ZM40.05 40.6512C39.8497 40.8436 39.5234 40.9911 38.9126 40.9474L38.7841 42.9433C39.7905 43.0153 40.7284 42.7829 41.4396 42.0995L40.05 40.6512ZM38.9126 40.9474C38.2484 40.8998 37.8027 40.6792 37.4829 40.3409L36.0354 41.7106C36.7563 42.4734 37.7034 42.8659 38.7841 42.9433L38.9126 40.9474ZM37.5099 40.3706C37.1899 40.0039 36.9644 39.4718 36.9086 38.6874L34.9146 38.8155C34.9935 39.9229 35.3331 40.907 36.0084 41.6809L37.5099 40.3706ZM35.1128 38.1444C33.8292 39.8435 32.4758 40.4864 31.0288 40.3828L30.9003 42.3787C33.1983 42.5432 35.1429 41.4334 36.7104 39.3585L35.1128 38.1444ZM33.1744 39.4297C34.0392 39.4916 34.8211 39.1412 35.4937 38.5792L34.2062 37.0393C33.7944 37.3835 33.5021 37.4481 33.3029 37.4338L33.1744 39.4297ZM35.4944 38.5786C36.2399 37.9545 36.7386 37.1035 37.0293 36.095L35.1084 35.5275C34.9037 36.2373 34.5898 36.7183 34.2056 37.0399L35.4944 38.5786ZM37.0312 36.0885L39.028 28.9811L37.1034 28.4267L35.1065 35.5341L37.0312 36.0885ZM39.0632 28.7754C39.0989 28.2204 38.9106 27.7196 38.6053 27.2988L36.9905 28.4667C37.0366 28.5302 37.0549 28.5731 37.0622 28.5954C37.0687 28.6154 37.0687 28.6256 37.0683 28.6325L39.0632 28.7754ZM38.6277 27.3309C38.2128 26.7095 37.5609 26.4462 36.8995 26.3988L36.7709 28.3947C36.8939 28.4035 36.9501 28.4268 36.966 28.4349C36.9735 28.4386 36.9739 28.4399 36.9712 28.4374C36.9683 28.4349 36.9671 28.433 36.9682 28.4346L38.6277 27.3309ZM36.8995 26.3988C35.5923 26.3052 34.5085 27.0188 33.6521 28.1124L35.2288 29.3537C35.8631 28.5436 36.3758 28.3664 36.7709 28.3947L36.8995 26.3988ZM33.6583 28.1045C32.8296 29.1411 32.1714 30.4015 31.6688 31.8639L33.5596 32.5268C34.004 31.2339 34.5633 30.1861 35.2226 29.3616L33.6583 28.1045ZM31.6701 31.8602C31.1779 33.2741 30.8817 34.5756 30.8057 35.7552L32.8006 35.898C32.8618 34.9487 33.1062 33.8294 33.5583 32.5305L31.6701 31.8602ZM30.8057 35.7552C30.769 36.3258 30.775 36.8435 30.8424 37.2874C30.9068 37.7114 31.0442 38.1868 31.3677 38.5575L32.8692 37.2472C32.914 37.2986 32.8594 37.2683 32.8187 37.0004C32.781 36.7524 32.7688 36.3918 32.8006 35.898L30.8057 35.7552ZM31.3909 38.5832C31.8689 39.0945 32.4815 39.38 33.1744 39.4297L33.3029 37.4338C33.1022 37.4194 32.9679 37.352 32.846 37.2216L31.3909 38.5832ZM47.6002 23.4517L46.8309 24.085L46.8492 24.1071L46.8686 24.1282L47.6002 23.4517ZM47.7791 20.6735L47.1193 19.9173L47.1086 19.9267L47.0981 19.9364L47.7791 20.6735ZM50.556 20.8724L49.8053 21.5275L50.556 20.8724ZM50.3771 23.6506L51.0153 24.4252L51.0262 24.4161L51.037 24.4068L50.3771 23.6506ZM53.3455 23.8632L52.5762 24.4965L52.5945 24.5186L52.6139 24.5397L53.3455 23.8632ZM53.5244 21.0849L52.8646 20.3288L52.8538 20.3382L52.8434 20.3478L53.5244 21.0849ZM56.1224 24.0621L56.7605 24.8366L56.7715 24.8276L56.7823 24.8182L56.1224 24.0621ZM42.9736 41.0217L42.2395 41.6956L42.2484 41.705L42.9736 41.0217ZM43.0882 32.2717L44.0168 32.6484L43.0882 32.2717ZM46.1911 27.9063L46.8447 28.6679L46.8509 28.6625L46.1911 27.9063ZM53.3442 32.8458L54.1325 33.4665L54.1325 33.4665L53.3442 32.8458ZM50.4749 35.0785L50.884 35.9942L50.8907 35.9913L50.8973 35.9882L50.4749 35.0785ZM46.8023 35.8421L46.8001 34.8416L45.9465 34.8374L45.8148 35.6806L46.8023 35.8421ZM52.3604 38.165L53.3301 38.4144L54.0303 35.6135L51.7476 37.3702L52.3604 38.165ZM47.1244 34.3253L46.1628 34.0455L45.816 35.2673L47.0864 35.3247L47.1244 34.3253ZM49.442 33.6892L48.9193 32.8326L48.9074 32.8401L49.442 33.6892ZM51.2911 31.8647L50.4491 31.3194L50.4442 31.3273L51.2911 31.8647ZM49.0443 29.9072L48.2 29.3657L48.197 29.3704L49.0443 29.9072ZM49.0339 23.0973C48.7213 23.0749 48.5083 22.9663 48.3318 22.7753L46.8686 24.1282C47.4116 24.7159 48.1116 25.0363 48.9054 25.0931L49.0339 23.0973ZM48.3695 22.8185C48.2042 22.6178 48.1254 22.392 48.1455 22.0792L46.1507 21.9364C46.0995 22.7306 46.3221 23.4675 46.8309 24.085L48.3695 22.8185ZM48.1455 22.0792C48.1636 21.799 48.2626 21.5933 48.4602 21.4106L47.0981 19.9364C46.5229 20.4683 46.2012 21.1521 46.1507 21.9364L48.1455 22.0792ZM48.439 21.4297C48.6429 21.2518 48.8612 21.1761 49.1563 21.1972L49.2848 19.2013C48.4734 19.1432 47.7308 19.3837 47.1193 19.9173L48.439 21.4297ZM49.1563 21.1972C49.4184 21.216 49.6184 21.3133 49.8053 21.5275L51.3068 20.2172C50.777 19.6102 50.0867 19.2588 49.2848 19.2013L49.1563 21.1972ZM49.8053 21.5275C49.9922 21.7417 50.0616 21.953 50.0447 22.2152L52.0396 22.3581C52.0912 21.5558 51.8365 20.8243 51.3068 20.2172L49.8053 21.5275ZM50.0447 22.2152C50.0257 22.5104 49.9211 22.7166 49.7173 22.8945L51.037 24.4068C51.6485 23.8731 51.9873 23.1699 52.0396 22.3581L50.0447 22.2152ZM49.739 22.8761C49.5312 23.0471 49.314 23.1173 49.0339 23.0973L48.9054 25.0931C49.6893 25.1493 50.4104 24.9231 51.0153 24.4252L49.739 22.8761ZM54.7792 23.5087C54.4666 23.4863 54.2535 23.3777 54.0771 23.1867L52.6139 24.5397C53.1569 25.1274 53.8568 25.4477 54.6507 25.5046L54.7792 23.5087ZM54.1148 23.2299C53.9495 23.0293 53.8707 22.8035 53.8908 22.4907L51.8959 22.3478C51.8448 23.142 52.0674 23.8789 52.5762 24.4965L54.1148 23.2299ZM53.8908 22.4907C53.9089 22.2105 54.0079 22.0048 54.2055 21.8221L52.8434 20.3478C52.2682 20.8797 51.9464 21.5635 51.8959 22.3478L53.8908 22.4907ZM54.1843 21.8411C54.3881 21.6632 54.6065 21.5875 54.9016 21.6086L55.0301 19.6128C54.2187 19.5547 53.4761 19.7951 52.8646 20.3288L54.1843 21.8411ZM54.9016 21.6086C55.1636 21.6274 55.3637 21.7248 55.5506 21.939L57.0521 20.6287C56.5223 20.0216 55.832 19.6702 55.0301 19.6128L54.9016 21.6086ZM55.5506 21.939C55.7375 22.1531 55.8069 22.3645 55.79 22.6267L57.7849 22.7696C57.8365 21.9673 57.5818 21.2358 57.0521 20.6287L55.5506 21.939ZM55.79 22.6267C55.771 22.9219 55.6664 23.128 55.4625 23.3059L56.7823 24.8182C57.3938 24.2846 57.7326 23.5814 57.7849 22.7696L55.79 22.6267ZM55.4842 23.2875C55.2765 23.4586 55.0593 23.5288 54.7792 23.5087L54.6507 25.5046C55.4346 25.5607 56.1557 25.3345 56.7605 24.8366L55.4842 23.2875ZM46.5984 41.4978C45.2174 41.3989 44.2979 40.9748 43.6988 40.3383L42.2484 41.705C43.29 42.8115 44.7442 43.3701 46.4699 43.4937L46.5984 41.4978ZM43.7076 40.3479C43.1446 39.7341 42.8084 38.7317 42.9112 37.1354L40.9163 36.9925C40.7943 38.8876 41.1647 40.5238 42.2396 41.6955L43.7076 40.3479ZM42.9112 37.1354C42.9976 35.7948 43.3575 34.3014 44.0168 32.6484L42.1595 31.8951C41.4422 33.6938 41.0192 35.3952 40.9163 36.9925L42.9112 37.1354ZM44.0168 32.6484C44.647 31.0682 45.5883 29.746 46.8447 28.6679L45.5374 27.1448C44.0333 28.4355 42.9059 30.0236 42.1595 31.8951L44.0168 32.6484ZM46.8509 28.6625C48.0146 27.647 49.4378 27.1844 51.1996 27.3106L51.3281 25.3148C49.0895 25.1544 47.1308 25.7543 45.5312 27.1502L46.8509 28.6625ZM51.1996 27.3106C52.247 27.3856 52.8313 27.6601 53.1435 27.9726C53.4311 28.2605 53.6334 28.7283 53.58 29.5583L55.5749 29.7012C55.653 28.4875 55.3689 27.3805 54.552 26.5628C53.7596 25.7696 52.6214 25.4074 51.3281 25.3148L51.1996 27.3106ZM53.58 29.5583C53.5163 30.547 53.1799 31.4283 52.5559 32.2251L54.1325 33.4665C54.9992 32.3597 55.485 31.097 55.5749 29.7012L53.58 29.5583ZM52.5559 32.2251C51.9138 33.0451 51.0859 33.6938 50.0525 34.1688L50.8973 35.9882C52.1989 35.39 53.2839 34.5502 54.1325 33.4665L52.5559 32.2251ZM50.0658 34.1628C49.028 34.6214 47.9425 34.8472 46.8001 34.8416L46.8045 36.8426C48.2265 36.8495 49.5894 36.5663 50.884 35.9942L50.0658 34.1628ZM45.8148 35.6806C45.7428 36.1412 45.6936 36.502 45.6793 36.7241L47.6742 36.867C47.6818 36.7485 47.7164 36.4736 47.7898 36.0036L45.8148 35.6806ZM45.6793 36.7241C45.6163 37.7029 45.7349 38.6315 46.2059 39.3588C46.7142 40.1437 47.5162 40.5209 48.4207 40.5857L48.5493 38.5898C48.1345 38.5601 47.9755 38.4247 47.8811 38.2788C47.7493 38.0754 47.6235 37.6551 47.6742 36.867L45.6793 36.7241ZM48.4207 40.5857C49.196 40.6412 49.9928 40.4896 50.7961 40.1798L50.0658 38.312C49.4661 38.5433 48.9656 38.6196 48.5493 38.5898L48.4207 40.5857ZM50.7961 40.1798C51.5848 39.8756 52.3116 39.4689 52.9731 38.9598L51.7476 37.3702C51.2396 37.7612 50.6801 38.0751 50.0658 38.312L50.7961 40.1798ZM51.3906 37.9156C51.0396 39.3198 50.4567 40.2285 49.7212 40.7752C48.9895 41.3191 47.9828 41.597 46.5984 41.4978L46.4699 43.4937C48.1922 43.617 49.7099 43.2844 50.9203 42.3847C52.1269 41.4878 52.9037 40.1198 53.3301 38.4144L51.3906 37.9156ZM47.0864 35.3247C48.1136 35.3712 49.084 35.0978 49.9767 34.5383L48.9074 32.8401C48.3299 33.202 47.7552 33.3526 47.1624 33.3258L47.0864 35.3247ZM49.9648 34.5457C50.854 34.0059 51.5807 33.288 52.138 32.402L50.4442 31.3273C50.0488 31.9558 49.5429 32.4542 48.9193 32.8327L49.9648 34.5457ZM52.133 32.4099C52.7175 31.4996 53.0535 30.513 53.1213 29.4613L51.1264 29.3185C51.0817 30.0125 50.8625 30.6758 50.4492 31.3195L52.133 32.4099ZM53.1213 29.4613C53.1538 28.956 53.1178 28.4045 52.8726 27.9351C52.5838 27.382 52.0708 27.0682 51.4745 27.0255L51.3459 29.0214C51.3402 29.021 51.2868 29.015 51.2192 28.9717C51.1498 28.9272 51.1142 28.8745 51.1025 28.8522C51.0944 28.8367 51.109 28.8579 51.1206 28.9423C51.1319 29.0254 51.1374 29.1479 51.1264 29.3185L53.1213 29.4613ZM51.4745 27.0255C50.7759 26.9755 50.1535 27.2565 49.6345 27.6697C49.1211 28.0785 48.647 28.6628 48.2 29.3657L49.8886 30.4487C50.2741 29.8425 50.6105 29.4583 50.8858 29.2391C51.1554 29.0244 51.2997 29.0181 51.3459 29.0214L51.4745 27.0255ZM48.197 29.3704C47.3311 30.7491 46.6554 32.3103 46.1628 34.0455L48.086 34.605C48.5336 33.0283 49.1378 31.6442 49.8915 30.444L48.197 29.3704ZM54.4545 42.1005L53.6926 42.7428L53.6981 42.7493L53.7037 42.7557L54.4545 42.1005ZM54.1029 37.1028L53.1408 36.8245L53.1375 36.837L54.1029 37.1028ZM56.5959 28.2665L57.5579 28.5448L57.8931 27.3569L56.6602 27.2686L56.5959 28.2665ZM55.5426 28.1911L54.5771 27.9253L54.2616 29.1019L55.4783 29.189L55.5426 28.1911ZM55.8802 26.932L55.9445 25.9341L55.1268 25.8755L54.9147 26.6663L55.8802 26.932ZM56.9335 27.0075L56.8692 28.0054L57.6731 28.063L57.8945 27.2892L56.9335 27.0075ZM58.1749 22.6692L58.105 21.6706L57.4063 21.7147L57.2138 22.3874L58.1749 22.6692ZM62.9399 22.3688L63.9015 22.6486L64.2897 21.2808L62.87 21.3703L62.9399 22.3688ZM61.5297 27.3366L60.5681 27.0568L60.2306 28.2461L61.4655 28.3345L61.5297 27.3366ZM63.4448 27.4738L64.4103 27.7395L64.7258 26.563L63.5091 26.4758L63.4448 27.4738ZM63.1072 28.7328L63.043 29.7308L63.8607 29.7893L64.0727 28.9986L63.1072 28.7328ZM61.1921 28.5957L61.2564 27.5977L60.4493 27.5399L60.23 28.3176L61.1921 28.5957ZM58.5324 38.0295L59.4796 38.3557L59.4877 38.3318L59.4945 38.3076L58.5324 38.0295ZM58.5666 39.9889L57.8158 40.6441L57.8524 40.686L57.8933 40.7236L58.5666 39.9889ZM61.3444 39.6746L61.9888 40.4439L61.9966 40.4374L62.0043 40.4307L61.3444 39.6746ZM62.6251 37.7131L62.6894 36.7152L61.9343 36.6611L61.6826 37.3734L62.6251 37.7131ZM63.9657 37.8091L64.8885 38.2001L65.426 36.9112L64.0299 36.8112L63.9657 37.8091ZM60.6311 42.2862L61.124 43.1602L61.1344 43.1542L60.6311 42.2862ZM56.9467 42.2389C56.1519 42.182 55.6039 41.9023 55.2052 41.4454L53.7037 42.7557C54.4995 43.6676 55.5701 44.1454 56.8181 44.2348L56.9467 42.2389ZM55.2163 41.4583C54.8695 41.0472 54.6385 40.3635 54.7114 39.2316L52.7165 39.0888C52.6248 40.5116 52.8875 41.7882 53.6926 42.7428L55.2163 41.4583ZM54.7114 39.2316C54.7396 38.7931 54.8511 38.1788 55.0684 37.3685L53.1375 36.837C52.9046 37.7055 52.7568 38.4629 52.7165 39.0888L54.7114 39.2316ZM55.065 37.381L57.5579 28.5448L55.6339 27.9883L53.1409 36.8245L55.065 37.381ZM56.6602 27.2686L55.6069 27.1932L55.4783 29.189L56.5316 29.2645L56.6602 27.2686ZM56.5081 28.4568L56.8457 27.1978L54.9147 26.6663L54.5771 27.9253L56.5081 28.4568ZM55.8159 27.93L56.8692 28.0054L56.9978 26.0095L55.9445 25.9341L55.8159 27.93ZM57.8945 27.2892L59.1359 22.9509L57.2138 22.3874L55.9725 26.7257L57.8945 27.2892ZM58.2447 23.6677L63.0098 23.3673L62.87 21.3703L58.105 21.6706L58.2447 23.6677ZM61.9783 22.089L60.5681 27.0568L62.4913 27.6164L63.9015 22.6486L61.9783 22.089ZM61.4655 28.3345L63.3806 28.4717L63.5091 26.4758L61.594 26.3387L61.4655 28.3345ZM62.4794 27.208L62.1418 28.4671L64.0727 28.9986L64.4103 27.7395L62.4794 27.208ZM63.1715 27.7349L61.2564 27.5977L61.1279 29.5936L63.043 29.7308L63.1715 27.7349ZM60.23 28.3176L57.5703 37.7515L59.4945 38.3076L62.1542 28.8737L60.23 28.3176ZM57.5852 37.7034C57.4493 38.1063 57.3699 38.5303 57.3415 38.9708L59.3364 39.1137C59.3546 38.8304 59.4042 38.5793 59.4796 38.3557L57.5852 37.7034ZM57.3415 38.9708C57.3065 39.5147 57.384 40.1493 57.8158 40.6441L59.3173 39.3338C59.3536 39.3754 59.3542 39.4007 59.3469 39.3707C59.3387 39.3363 59.3272 39.2562 59.3364 39.1137L57.3415 38.9708ZM57.8933 40.7236C58.3465 41.1402 58.9598 41.2763 59.5072 41.3155L59.6358 39.3196C59.458 39.3069 59.3422 39.2819 59.2734 39.2594C59.2049 39.237 59.2086 39.2256 59.2398 39.2543L57.8933 40.7236ZM59.5072 41.3155C60.4307 41.3816 61.2677 41.0476 61.9888 40.4439L60.7 38.9052C60.2914 39.2472 59.9464 39.3419 59.6358 39.3196L59.5072 41.3155ZM62.0043 40.4307C62.7167 39.809 63.2316 39.0035 63.5677 38.0527L61.6826 37.3734C61.4435 38.0498 61.1046 38.5519 60.6846 38.9184L62.0043 40.4307ZM62.5608 38.711L63.9014 38.807L64.0299 36.8112L62.6894 36.7152L62.5608 38.711ZM63.0429 37.4181C62.1425 39.577 61.141 40.8346 60.1279 41.4182L61.1344 43.1542C62.6966 42.2541 63.9181 40.5269 64.8885 38.2001L63.0429 37.4181ZM60.1383 41.4123C58.9843 42.0588 57.9269 42.3091 56.9467 42.2389L56.8181 44.2348C58.2637 44.3383 59.7054 43.9548 61.124 43.1601L60.1383 41.4123ZM66.9738 25.2562L67.7245 24.6011L66.9738 25.2562ZM67.2041 21.6797L67.864 22.4358L67.872 22.4288L67.8798 22.4217L67.2041 21.6797ZM70.779 21.9357L70.0144 22.5746L70.0281 22.5909L70.0424 22.6067L70.779 21.9357ZM70.5486 25.5123L69.9049 24.7423L69.8968 24.7491L69.8888 24.7561L70.5486 25.5123ZM62.9619 42.7419L62.2 43.3841L62.2055 43.3906L62.2111 43.397L62.9619 42.7419ZM62.6124 37.7122L61.6499 37.4355L61.6466 37.4474L61.6435 37.4594L62.6124 37.7122ZM65.443 27.6169L65.5072 26.6189L64.6989 26.561L64.4805 27.3402L65.443 27.6169ZM70.0392 27.946L71.0017 28.2226L71.3342 27.0362L70.1035 26.9481L70.0392 27.946ZM67.0419 38.6389L67.9891 38.9651L67.9974 38.9405L68.0044 38.9156L67.0419 38.6389ZM70.8495 40.259L71.2929 41.1589L71.299 41.1558L70.8495 40.259ZM73.4471 38.2635L74.2039 38.9224L74.4904 38.592L74.44 38.1556L73.4471 38.2635ZM72.2735 28.106L72.3377 27.1081L71.1429 27.0225L71.2806 28.214L72.2735 28.106ZM76.7739 28.4283L77.7669 28.3213L77.6717 27.4901L76.8382 27.4304L76.7739 28.4283ZM77.5746 35.4152L76.5816 35.5222L76.8083 37.5006L78.2583 36.1498L77.5746 35.4152ZM79.9939 32.7011L79.1697 32.1293L79.1697 32.1293L79.9939 32.7011ZM80.9265 30.1694L81.8931 29.9216L81.6808 29.1126L80.8491 29.1714L80.9265 30.1694ZM79.2616 29.6331L78.4033 30.1396L78.4111 30.1527L78.4193 30.1656L79.2616 29.6331ZM79.5754 27.2495L80.1225 28.0907L80.1387 28.0802L80.1545 28.069L79.5754 27.2495ZM82.4234 27.8384L81.5764 28.3635L81.5764 28.3635L82.4234 27.8384ZM81.5672 33.1667L80.7479 32.5877L80.745 32.592L81.5672 33.1667ZM77.8126 37.1967L77.1383 36.4534L76.7616 36.7953L76.8195 37.3032L77.8126 37.1967ZM77.997 38.814L77.0039 38.9204L77.0039 38.9204L77.997 38.814ZM78.4935 41.0631L77.598 41.5013L77.6066 41.5186L77.6158 41.5356L78.4935 41.0631ZM80.8606 41.6497L81.8497 41.8005L82.0877 40.1618L80.5267 40.7043L80.8606 41.6497ZM79.5532 44.0263L80.1449 44.8368L80.1473 44.8351L79.5532 44.0263ZM74.8715 43.5306L74.0459 44.0887L74.0557 44.1031L74.0659 44.1172L74.8715 43.5306ZM73.717 40.0473L74.7014 39.8809L74.3727 38.0099L73.0179 39.3273L73.717 40.0473ZM69.6533 42.9003L69.2128 41.999L69.2071 42.0019L69.6533 42.9003ZM68.7782 25.1208C68.3362 25.0891 68.0046 24.922 67.7245 24.6011L66.2231 25.9114C66.8588 26.6399 67.6872 27.0477 68.6497 27.1167L68.7782 25.1208ZM67.7245 24.6011C67.4445 24.2802 67.3238 23.929 67.3523 23.4868L65.3574 23.3439C65.2954 24.3068 65.5873 25.1829 66.2231 25.9114L67.7245 24.6011ZM67.3523 23.4868C67.3808 23.0446 67.5454 22.7138 67.864 22.4358L66.5443 20.9235C65.821 21.5547 65.4194 22.381 65.3574 23.3439L67.3523 23.4868ZM67.8798 22.4217C68.203 22.1272 68.5486 22.0085 68.9766 22.0392L69.1052 20.0433C68.1288 19.9734 67.2499 20.2803 66.5284 20.9376L67.8798 22.4217ZM68.9766 22.0392C69.4047 22.0698 69.7319 22.2367 70.0144 22.5746L71.5436 21.2968C70.913 20.5426 70.0815 20.1132 69.1052 20.0433L68.9766 22.0392ZM70.0424 22.6067C70.3389 22.9324 70.46 23.2791 70.4324 23.7074L72.4273 23.8503C72.4902 22.8734 72.1773 21.9914 71.5155 21.2646L70.0424 22.6067ZM70.4324 23.7074C70.4048 24.1357 70.2404 24.462 69.9049 24.7423L71.1924 26.2822C71.9413 25.6564 72.3644 24.8271 72.4273 23.8503L70.4324 23.7074ZM69.8888 24.7561C69.5702 25.0341 69.2202 25.1524 68.7782 25.1208L68.6497 27.1167C69.6121 27.1856 70.4852 26.8996 71.2085 26.2684L69.8888 24.7561ZM65.4242 42.846C64.6187 42.7883 64.0852 42.5137 63.7126 42.0867L62.2111 43.397C62.9932 44.2932 64.0584 44.7533 65.2957 44.8419L65.4242 42.846ZM63.7237 42.0996C63.3769 41.6885 63.1459 41.0048 63.2188 39.873L61.2239 39.7301C61.1322 41.153 61.3949 42.4295 62.2 43.3841L63.7237 42.0996ZM63.2188 39.873C63.2443 39.4769 63.3563 38.8517 63.5813 37.9649L61.6435 37.4594C61.4102 38.3792 61.2614 39.1469 61.2239 39.7301L63.2188 39.873ZM63.5749 37.9889L66.4054 27.8936L64.4805 27.3402L61.6499 37.4355L63.5749 37.9889ZM65.3787 28.6148L69.9749 28.944L70.1035 26.9481L65.5072 26.6189L65.3787 28.6148ZM69.0767 27.6694L66.0794 38.3623L68.0044 38.9156L71.0017 28.2226L69.0767 27.6694ZM66.0947 38.3128C65.9587 38.7157 65.8793 39.1397 65.8509 39.5803L67.8458 39.7231C67.8641 39.4399 67.9137 39.1887 67.9891 38.9651L66.0947 38.3128ZM65.8509 39.5803C65.8126 40.1761 65.965 40.7986 66.4626 41.2662C66.9239 41.6996 67.5358 41.8584 68.1145 41.8998L68.243 39.9039C67.8855 39.8783 67.8075 39.7952 67.8253 39.8119C67.8303 39.8166 67.837 39.8242 67.8431 39.8338C67.846 39.8383 67.8481 39.8424 67.8496 39.8456C67.8504 39.8471 67.8509 39.8484 67.8513 39.8492C67.8516 39.8501 67.8518 39.8506 67.8518 39.8506C67.8518 39.8506 67.851 39.8484 67.85 39.8438C67.849 39.8391 67.8477 39.8317 67.8466 39.8214C67.8443 39.8006 67.8429 39.7684 67.8458 39.7231L65.8509 39.5803ZM68.1145 41.8998C69.1338 41.9728 70.2028 41.6911 71.2929 41.1589L70.4062 39.3592C69.5099 39.7968 68.7983 39.9437 68.243 39.9039L68.1145 41.8998ZM71.299 41.1558C72.4276 40.5951 73.3991 39.8506 74.2039 38.9224L72.6902 37.6047C72.0633 38.3277 71.3032 38.9135 70.4 39.3622L71.299 41.1558ZM74.44 38.1556L73.2664 27.9981L71.2806 28.214L72.4542 38.3715L74.44 38.1556ZM72.2092 29.104L76.7097 29.4263L76.8382 27.4304L72.3377 27.1081L72.2092 29.104ZM75.781 28.5353L76.5816 35.5222L78.5676 35.3082L77.7669 28.3213L75.781 28.5353ZM78.2583 36.1498C79.3174 35.1632 80.1765 34.2046 80.8181 33.273L79.1697 32.1293C78.6322 32.9098 77.8784 33.7606 76.8908 34.6805L78.2583 36.1498ZM80.8181 33.273C81.4388 32.3718 81.8766 31.4742 81.9312 30.6263L79.9363 30.4834C79.9169 30.7851 79.7282 31.3184 79.1697 32.1293L80.8181 33.273ZM81.9312 30.6263C81.9421 30.4572 81.9579 30.1684 81.8931 29.9216L79.9599 30.4172C79.9528 30.3899 79.9487 30.3681 79.9463 30.354C79.9439 30.3397 79.9428 30.3292 79.9422 30.3238C79.9412 30.3138 79.9416 30.3136 79.9419 30.3265C79.9421 30.3385 79.9421 30.3576 79.9412 30.3848C79.9404 30.4118 79.9388 30.4445 79.9363 30.4834L81.9312 30.6263ZM80.8491 29.1714C80.7025 29.1817 80.591 29.1885 80.5117 29.1921C80.4719 29.1939 80.4446 29.1948 80.4275 29.195C80.4045 29.1954 80.4158 29.1944 80.4441 29.1964L80.3155 31.1923C80.4681 31.2032 80.7376 31.1862 81.004 31.1674L80.8491 29.1714ZM80.4441 29.1964C80.2742 29.1843 80.1841 29.1518 80.1442 29.1318C80.1129 29.116 80.1078 29.1067 80.1039 29.1005L78.4193 30.1656C78.8594 30.8585 79.5845 31.14 80.3155 31.1923L80.4441 29.1964ZM80.1199 29.1266C80.0376 28.9878 79.9673 28.7582 79.9923 28.3701L77.9974 28.2272C77.9538 28.9035 78.0614 29.5636 78.4033 30.1396L80.1199 29.1266ZM79.9923 28.3701C80.0045 28.1796 80.0578 28.1325 80.1225 28.0907L79.0284 26.4083C78.3792 26.8286 78.0454 27.481 77.9974 28.2272L79.9923 28.3701ZM80.1545 28.069C80.2959 27.9695 80.4936 27.9007 80.8146 27.9237L80.9432 25.9278C80.2428 25.8777 79.5716 26.0247 78.9963 26.4299L80.1545 28.069ZM80.8146 27.9237C81.1894 27.9505 81.406 28.0901 81.5764 28.3635L83.2704 27.3133C82.7433 26.4674 81.9302 25.9985 80.9432 25.9278L80.8146 27.9237ZM81.5764 28.3635C81.7874 28.7021 81.9125 29.1749 81.8689 29.8519L83.8637 29.9947C83.9271 29.0112 83.7569 28.094 83.2704 27.3133L81.5764 28.3635ZM81.8689 29.8519C81.8184 30.6361 81.4803 31.5442 80.748 32.5877L82.3865 33.7457C83.2547 32.5084 83.7826 31.2543 83.8637 29.9947L81.8689 29.8519ZM80.745 32.592C80.0298 33.6227 78.8414 34.9076 77.1383 36.4534L78.4868 37.94C80.2347 36.3537 81.5494 34.952 82.3894 33.7414L80.745 32.592ZM76.8195 37.3032L77.0039 38.9204L78.99 38.7075L78.8056 37.0902L76.8195 37.3032ZM77.0039 38.9204C77.1273 40.0021 77.3052 40.9082 77.598 41.5013L79.3889 40.6249C79.2657 40.3755 79.1126 39.7821 78.99 38.7075L77.0039 38.9204ZM77.6158 41.5356C78.0679 42.3692 78.9043 42.7046 79.7626 42.7661L79.8911 40.7702C79.658 40.7535 79.5269 40.7075 79.4607 40.6725C79.4059 40.6436 79.3863 40.6186 79.3711 40.5906L77.6158 41.5356ZM79.7626 42.7661C80.2565 42.8014 80.7397 42.7531 81.1944 42.5951L80.5267 40.7043C80.3692 40.7591 80.1632 40.7897 79.8911 40.7702L79.7626 42.7661ZM79.8714 41.4989C79.748 42.3494 79.4209 42.8791 78.9591 43.2175L80.1473 44.8351C81.1213 44.1214 81.6659 43.0667 81.8497 41.8005L79.8714 41.4989ZM78.9615 43.2158C78.4679 43.5751 77.8985 43.7394 77.202 43.6895L77.0735 45.6854C78.207 45.7665 79.2478 45.49 80.1449 44.8368L78.9615 43.2158ZM77.202 43.6895C76.4438 43.6352 75.9836 43.364 75.677 42.9441L74.0659 44.1172C74.7809 45.0964 75.8315 45.5964 77.0735 45.6854L77.202 43.6895ZM75.6971 42.9725C75.3317 42.434 74.9761 41.4451 74.7014 39.8809L72.7326 40.2138C73.021 41.8553 73.4351 43.1885 74.0459 44.0887L75.6971 42.9725ZM73.0179 39.3273C71.8843 40.4297 70.6168 41.3191 69.2128 41.9991L70.0938 43.8015C71.6908 43.0281 73.1324 42.0156 74.4161 40.7674L73.0179 39.3273ZM69.2071 42.0019C67.8555 42.6673 66.5998 42.9302 65.4242 42.846L65.2957 44.8419C66.8863 44.9558 68.4929 44.5896 70.0996 43.7987L69.2071 42.0019Z" fill="black" mask="url(#path-62-outside-19_438_211)"/>
</svg>
