<svg width="124" height="77" viewBox="0 0 124 77" fill="none" xmlns="http://www.w3.org/2000/svg">
<path d="M75.8262 55.341H37.0221C32.3249 55.341 27.5165 53.8077 25.1622 49.743C23.6533 47.1376 22.5308 43.9452 22.8158 40.5588C22.8675 39.9436 22.9619 39.3603 23.0928 38.8078C24.8843 31.2435 32.2731 25.1166 36.2969 18.4655C37.9832 15.6781 40.0827 13.4414 42.5625 12.8567C48.4865 11.46 53.2586 16.465 54.9041 19.1421C60.5852 26.8242 73.1933 43.1428 73.0053 47.4261C72.8172 51.7094 75.0035 55.341 75.8262 55.341Z" fill="#00D9FF" stroke="black" stroke-width="8"/>
<path d="M92.4996 55.3198H77.7454C76.3582 55.3198 75.0786 54.5722 74.3974 53.3638L56.098 20.8994C55.5006 19.8396 55.9119 18.4955 57 17.9515C63.3384 15.7604 70.0248 10.8585 78.9192 12.2421C84.5628 13.12 89.9719 17.3814 93.4106 21.8048C97.5535 27.1343 100.041 34.3106 103.2 40.2764C103.908 41.6128 104.41 43.0074 104.508 44.4037C104.694 47.0611 103.712 49.4233 102.402 51.3009C100.239 54.4016 96.28 55.3198 92.4996 55.3198Z" fill="white" stroke="black" stroke-width="8"/>
<ellipse cx="81.5823" cy="23.4649" rx="2.58232" ry="2.46494" fill="black"/>
<circle cx="92.2866" cy="44.2866" r="3.28659" fill="black"/>
<circle cx="45.2866" cy="23.2866" r="3.28659" fill="black"/>
<path d="M42.843 49.3546L38.0305 43.1336" stroke="black" stroke-width="8" stroke-linecap="round"/>
<path d="M90.2073 19.9543C90.2073 19.8583 90.2851 19.7805 90.3811 19.7805H107.283C107.379 19.7805 107.457 19.8583 107.457 19.9543C107.457 20.0503 107.379 20.1281 107.283 20.1281H90.3811C90.2851 20.1281 90.2073 20.0503 90.2073 19.9543Z" fill="#0FDBFF" stroke="black" stroke-width="2"/>
<path d="M94.1982 26.7622C94.1982 26.6662 94.276 26.5884 94.372 26.5884H112.683C112.779 26.5884 112.857 26.6662 112.857 26.7622C112.857 26.8582 112.779 26.936 112.683 26.936H94.372C94.276 26.936 94.1982 26.8582 94.1982 26.7622Z" fill="white" stroke="black" stroke-width="2"/>
<path d="M96.311 33.5701C96.311 33.4742 96.3888 33.3964 96.4848 33.3964H114.796C114.892 33.3964 114.97 33.4742 114.97 33.5701C114.97 33.6661 114.892 33.7439 114.796 33.7439H96.4848C96.3888 33.7439 96.311 33.6661 96.311 33.5701Z" fill="white" stroke="black" stroke-width="2"/>
<path d="M100.302 39.6738C100.302 39.5778 100.38 39.5 100.476 39.5H118.787C118.883 39.5 118.96 39.5778 118.96 39.6738C118.96 39.7698 118.883 39.8476 118.787 39.8476H100.476C100.38 39.8476 100.302 39.7698 100.302 39.6738Z" fill="white" stroke="black" stroke-width="2"/>
<path d="M101.006 49.2988C101.006 49.2028 101.084 49.125 101.18 49.125H114.796C114.892 49.125 114.97 49.2028 114.97 49.2988C114.97 49.3948 114.892 49.4726 114.796 49.4726H101.18C101.084 49.4726 101.006 49.3948 101.006 49.2988Z" fill="#0FDBFF" stroke="black" stroke-width="2"/>
<circle cx="115.148" cy="26.6448" r="1" fill="white" stroke="black" stroke-width="1.52134"/>
<path d="M34.2186 21.3006C34.2189 21.3966 34.1414 21.4746 34.0454 21.4749L15.7345 21.5343C15.6385 21.5346 15.5605 21.457 15.5602 21.361C15.5599 21.2651 15.6374 21.187 15.7334 21.1867L34.0443 21.1274C34.1402 21.1271 34.2183 21.2046 34.2186 21.3006Z" fill="#0FDBFF" stroke="black" stroke-width="2"/>
<path d="M31.1653 29.3478C31.1656 29.4438 31.088 29.5218 30.9921 29.5221L12.6812 29.5814C12.5852 29.5818 12.5071 29.5042 12.5068 29.4082C12.5065 29.3123 12.5841 29.2342 12.68 29.2339L30.9909 29.1746C31.0869 29.1742 31.165 29.2518 31.1653 29.3478Z" fill="white" stroke="black" stroke-width="2"/>
<path d="M24.3574 34.7471C24.3577 34.8431 24.2802 34.9212 24.1842 34.9215L5.87331 34.9808C5.77734 34.9811 5.69928 34.9036 5.69897 34.8076C5.69866 34.7116 5.77621 34.6335 5.87219 34.6332L24.1831 34.5739C24.279 34.5736 24.3571 34.6512 24.3574 34.7471Z" fill="white" stroke="black" stroke-width="2"/>
<path d="M22.7141 41.5551C22.7144 41.651 22.6369 41.7291 22.5409 41.7294L4.23 41.7887C4.13403 41.789 4.05597 41.7115 4.05566 41.6155C4.05535 41.5195 4.1329 41.4415 4.22888 41.4412L22.5398 41.3818C22.6357 41.3815 22.7138 41.4591 22.7141 41.5551Z" fill="white" stroke="black" stroke-width="2"/>
<path d="M23.8878 48.8325C23.8881 48.9285 23.8106 49.0065 23.7146 49.0069L5.40371 49.0662C5.30773 49.0665 5.22968 48.9889 5.22936 48.893C5.22905 48.797 5.3066 48.7189 5.40258 48.7186L23.7135 48.6593C23.8094 48.659 23.8875 48.7365 23.8878 48.8325Z" fill="#0FDBFF" stroke="black" stroke-width="2"/>
<circle cx="13.2694" cy="21.2511" r="1" transform="rotate(179.814 13.2694 21.2511)" fill="#0FDBFF" stroke="black" stroke-width="1.52134"/>
<path d="M51.8899 14.7383C51.7939 14.7375 51.7168 14.659 51.7176 14.563L51.8077 4.3979C51.8086 4.30193 51.8871 4.22482 51.983 4.22567C52.079 4.22652 52.1561 4.30501 52.1553 4.40098L52.0652 14.5661C52.0643 14.6621 51.9858 14.7392 51.8899 14.7383Z" fill="white" stroke="black" stroke-width="2"/>
<circle cx="52.014" cy="1.77618" r="1" transform="rotate(-89.4923 52.014 1.77618)" fill="#D9D9D9" stroke="black" stroke-width="1.52134"/>
<circle cx="10.2176" cy="29.2328" r="1" transform="rotate(179.814 10.2176 29.2328)" fill="white" stroke="black" stroke-width="1.52134"/>
<circle cx="3.40966" cy="34.6322" r="1" transform="rotate(179.814 3.40966 34.6322)" fill="white" stroke="black" stroke-width="1.52134"/>
<circle cx="1.76635" cy="41.4401" r="1" transform="rotate(179.814 1.76635 41.4401)" fill="white" stroke="black" stroke-width="1.52134"/>
<circle cx="2.94018" cy="48.9523" r="1" transform="rotate(179.814 2.94018 48.9523)" fill="#0FDBFF" stroke="black" stroke-width="1.52134"/>
<circle cx="109.983" cy="19.8369" r="1" fill="#0FDBFF" stroke="black" stroke-width="1.52134"/>
<circle cx="117.026" cy="33.4527" r="1" fill="white" stroke="black" stroke-width="1.52134"/>
<circle cx="121.252" cy="39.5564" r="1" fill="white" stroke="black" stroke-width="1.52134"/>
<circle cx="88.6204" cy="67.962" r="1" fill="#0FDBFF" stroke="black" stroke-width="1.52134"/>
<circle cx="82.0473" cy="70.779" r="1" fill="#0FDBFF" stroke="black" stroke-width="1.52134"/>
<circle cx="76.6479" cy="74.0656" r="1" fill="white" stroke="black" stroke-width="1.52134"/>
<circle cx="69.6052" cy="71.2485" r="1" fill="#0FDBFF" stroke="black" stroke-width="1.52134"/>
<circle cx="60.4496" cy="75.2393" r="1" fill="#0FDBFF" stroke="black" stroke-width="1.52134"/>
<circle cx="51.9985" cy="66.7881" r="1" fill="white" stroke="black" stroke-width="1.52134"/>
<circle cx="45.8948" cy="75.2393" r="1" fill="white" stroke="black" stroke-width="1.52134"/>
<circle cx="37.9131" cy="67.962" r="1" fill="white" stroke="black" stroke-width="1.52134"/>
<circle cx="117.261" cy="49.1814" r="1" fill="#0FDBFF" stroke="black" stroke-width="1.52134"/>
<rect x="88.2097" y="55.3438" width="0.821646" height="10.6814" rx="0.410823" fill="#0FDBFF" stroke="black" stroke-width="0.821646"/>
<rect x="81.6364" y="55.3438" width="0.821646" height="13.4985" rx="0.410823" fill="#0FDBFF" stroke="black" stroke-width="0.821646"/>
<rect x="76.237" y="55.3438" width="0.821646" height="16.5503" rx="0.410823" fill="white" stroke="black" stroke-width="0.821646"/>
<rect x="69.1944" y="55.3438" width="0.821646" height="13.968" rx="0.410823" fill="#0FDBFF" stroke="black" stroke-width="0.821646"/>
<rect x="60.0389" y="55.3438" width="0.821646" height="17.9588" rx="0.410823" fill="#0FDBFF" stroke="black" stroke-width="0.821646"/>
<rect x="51.5877" y="55.3438" width="0.821646" height="9.50762" rx="0.410823" fill="white" stroke="black" stroke-width="0.821646"/>
<rect x="45.4839" y="55.3438" width="0.821646" height="17.9588" rx="0.410823" fill="white" stroke="black" stroke-width="0.821646"/>
<rect x="37.5023" y="55.3438" width="0.821646" height="10.6814" rx="0.410823" fill="white" stroke="black" stroke-width="0.821646"/>
<mask id="path-45-outside-1_63_48" maskUnits="userSpaceOnUse" x="31.3405" y="19.1335" width="59.6283" height="29.87" fill="black">
<rect fill="white" x="31.3405" y="19.1335" width="59.6283" height="29.87"/>
<path d="M36.8835 43.638C35.6703 43.5556 34.6875 43.0719 33.9351 42.1869C33.1826 41.3019 32.8664 39.976 32.9864 38.2094C33.0933 36.6344 33.514 35.0058 34.2483 33.3237C35.0054 31.6218 36.0416 30.2168 37.357 29.1087C38.6952 27.9807 40.2263 27.4753 41.9503 27.5924C42.823 27.6517 43.4621 27.8447 43.8675 28.1716C44.273 28.4985 44.4591 28.9067 44.4258 29.3963L44.4106 29.6198L44.8767 27.9515L49.4741 28.2637L46.4383 38.9626C46.3314 39.2761 46.2658 39.6138 46.2412 39.9756C46.2123 40.4013 46.2871 40.7164 46.4656 40.921C46.6669 41.1057 47.0017 41.214 47.4699 41.2458C47.7679 41.266 48.0049 41.2393 48.181 41.1658C47.6318 42.3259 47.1277 43.1362 46.6688 43.5969C46.2113 44.0362 45.5782 44.2284 44.7694 44.1735C43.8967 44.1142 43.201 43.8104 42.6823 43.262C42.1864 42.6938 41.9063 41.937 41.8422 40.9919C40.4094 42.8831 38.7565 43.7652 36.8835 43.638ZM39.1691 40.682C39.7012 40.7182 40.2393 40.5088 40.7833 40.054C41.3501 39.5793 41.7589 38.9121 42.0098 38.0525L44.0322 30.9412C44.051 30.6645 43.9627 30.3912 43.7672 30.1213C43.5731 29.8302 43.2526 29.6694 42.8056 29.6391C41.9543 29.5812 41.1541 30.0294 40.405 30.9835C39.6574 31.9163 39.0444 33.0721 38.5659 34.4508C38.0888 35.8083 37.8141 37.0191 37.7419 38.0834C37.6696 39.1476 37.7723 39.8388 38.0501 40.157C38.3491 40.4767 38.7221 40.6517 39.1691 40.682ZM54.9577 26.2947C54.4043 26.2571 53.9483 26.0444 53.5897 25.6566C53.2539 25.2489 53.1048 24.7683 53.1424 24.215C53.1785 23.6828 53.3905 23.2375 53.7784 22.879C54.1875 22.5219 54.6688 22.3621 55.2222 22.3997C55.7543 22.4358 56.1989 22.6585 56.556 23.0676C56.9131 23.4767 57.0736 23.9474 57.0374 24.4795C56.9998 25.0329 56.7765 25.4881 56.3674 25.8452C55.9597 26.181 55.4898 26.3309 54.9577 26.2947ZM60.7044 26.685C60.151 26.6474 59.6951 26.4347 59.3365 26.0468C59.0007 25.6392 58.8516 25.1586 58.8892 24.6052C58.9253 24.0731 59.1373 23.6278 59.5251 23.2692C59.9343 22.9121 60.4155 22.7524 60.9689 22.79C61.501 22.8261 61.9456 23.0487 62.3027 23.4579C62.6598 23.867 62.8203 24.3376 62.7842 24.8697C62.7466 25.4231 62.5233 25.8784 62.1141 26.2355C61.7064 26.5713 61.2365 26.7211 60.7044 26.685ZM52.4572 44.6956C50.9034 44.5901 49.7177 44.1033 48.8999 43.2352C48.0836 42.3459 47.7348 41.0285 47.8533 39.2832C47.953 37.8146 48.3502 36.2165 49.0449 34.4889C49.7395 32.7614 50.7794 31.3031 52.1644 30.1143C53.551 28.9041 55.2446 28.3669 57.2453 28.5028C59.5866 28.6618 60.6878 29.7629 60.5491 31.8062C60.4681 32.9982 60.0531 34.0712 59.3041 35.0253C58.5551 35.9794 57.5956 36.7268 56.4256 37.2674C55.257 37.7868 54.0313 38.0456 52.7485 38.044C52.6741 38.5094 52.6312 38.8272 52.6196 38.9975C52.4996 40.7641 53.0995 41.6922 54.4191 41.7818C55.015 41.8223 55.6644 41.706 56.3672 41.433C57.07 41.16 57.7147 40.7975 58.3013 40.3456C57.5127 43.4566 55.5647 44.9066 52.4572 44.6956ZM53.0761 36.5268C53.8863 36.5604 54.66 36.3457 55.397 35.8825C56.1554 35.4209 56.7742 34.8107 57.2533 34.0521C57.7552 33.2737 58.0358 32.4481 58.0951 31.5754C58.1543 30.7028 57.9179 30.2484 57.3858 30.2123C56.6409 30.1617 55.8496 30.7922 55.0122 32.1038C54.1975 33.3955 53.5521 34.8699 53.0761 36.5268ZM62.8081 45.3985C61.7864 45.3292 60.978 44.9535 60.3828 44.2716C59.809 43.5912 59.5654 42.6124 59.6521 41.3354C59.6882 40.8033 59.8204 40.1173 60.0485 39.2775L62.5733 30.4362L61.5197 30.3647L61.8619 29.105L62.9154 29.1765L64.1724 24.8357L68.9409 24.5181L67.5128 29.4887L69.4284 29.6188L69.0863 30.8786L67.1707 30.7485L64.477 40.1876C64.3701 40.5011 64.3045 40.8388 64.2799 41.2006C64.251 41.6263 64.3258 41.9414 64.5043 42.146C64.7056 42.3307 65.0404 42.439 65.5086 42.4708C66.1259 42.5127 66.7179 42.2963 67.2847 41.8216C67.853 41.3257 68.2823 40.6706 68.5728 39.8564L69.9137 39.9475C68.9701 42.1927 67.8529 43.6884 66.562 44.4347C65.2726 45.1596 64.0213 45.4809 62.8081 45.3985ZM74.7049 28.2452C74.0025 28.1975 73.4232 27.9122 72.9669 27.3895C72.5106 26.8667 72.3063 26.2541 72.354 25.5517C72.4017 24.8493 72.6869 24.27 73.2097 23.8137C73.7339 23.3361 74.3472 23.1212 75.0496 23.1689C75.752 23.2166 76.3306 23.5125 76.7855 24.0565C77.263 24.5808 77.478 25.1941 77.4303 25.8964C77.3826 26.5988 77.0867 27.1774 76.5426 27.6323C76.0198 28.0886 75.4073 28.2929 74.7049 28.2452ZM71.2878 45.9744C70.2661 45.905 69.4677 45.5408 68.8923 44.8816C68.3184 44.2011 68.0749 43.2224 68.1616 41.9453C68.1948 41.4558 68.3277 40.7592 68.5601 39.8555L71.4271 29.7546L76.0245 30.0668L72.9886 40.7657C72.8818 41.0792 72.8161 41.4168 72.7915 41.7786C72.7395 42.5449 73.1817 42.9598 74.1182 43.0234C74.9058 43.0769 75.7972 42.8594 76.7926 42.3711C77.8107 41.8629 78.6793 41.1949 79.3984 40.367L78.2593 30.2186L82.761 30.5243L83.5378 37.5049C84.565 36.5483 85.375 35.6411 85.9678 34.7833C86.5606 33.9255 86.8765 33.2093 86.9155 32.6346C86.9285 32.443 86.9266 32.3146 86.9096 32.2493C86.6088 32.2717 86.4264 32.2807 86.3625 32.2763C85.8304 32.2402 85.4582 32.0545 85.2457 31.7194C85.0347 31.3629 84.9473 30.9186 84.9834 30.3865C85.0152 29.9183 85.2101 29.568 85.568 29.3357C85.9273 29.0822 86.3624 28.9727 86.8732 29.0074C87.5543 29.0537 88.0683 29.3558 88.4153 29.914C88.7623 30.4721 88.9076 31.1662 88.8512 31.9963C88.7819 33.0179 88.3449 34.1002 87.5402 35.2429C86.7584 36.3659 85.5015 37.7131 83.7697 39.2847L83.9487 40.9006C84.0679 41.9778 84.2309 42.7266 84.4376 43.1469C84.6655 43.5686 85.1094 43.8019 85.7692 43.8467C86.1523 43.8727 86.4972 43.832 86.8039 43.7245C86.6465 44.783 86.2077 45.5764 85.4876 46.1048C84.7902 46.6134 83.9839 46.8366 83.0687 46.7745C82.0683 46.7065 81.3138 46.3239 80.8052 45.6265C80.3194 44.9092 79.9384 43.7501 79.6622 42.149C78.4489 43.3282 77.0903 44.2837 75.5866 45.0155C74.1042 45.7487 72.6713 46.0684 71.2878 45.9744Z"/>
</mask>
<path d="M36.8835 43.638C35.6703 43.5556 34.6875 43.0719 33.9351 42.1869C33.1826 41.3019 32.8664 39.976 32.9864 38.2094C33.0933 36.6344 33.514 35.0058 34.2483 33.3237C35.0054 31.6218 36.0416 30.2168 37.357 29.1087C38.6952 27.9807 40.2263 27.4753 41.9503 27.5924C42.823 27.6517 43.4621 27.8447 43.8675 28.1716C44.273 28.4985 44.4591 28.9067 44.4258 29.3963L44.4106 29.6198L44.8767 27.9515L49.4741 28.2637L46.4383 38.9626C46.3314 39.2761 46.2658 39.6138 46.2412 39.9756C46.2123 40.4013 46.2871 40.7164 46.4656 40.921C46.6669 41.1057 47.0017 41.214 47.4699 41.2458C47.7679 41.266 48.0049 41.2393 48.181 41.1658C47.6318 42.3259 47.1277 43.1362 46.6688 43.5969C46.2113 44.0362 45.5782 44.2284 44.7694 44.1735C43.8967 44.1142 43.201 43.8104 42.6823 43.262C42.1864 42.6938 41.9063 41.937 41.8422 40.9919C40.4094 42.8831 38.7565 43.7652 36.8835 43.638ZM39.1691 40.682C39.7012 40.7182 40.2393 40.5088 40.7833 40.054C41.3501 39.5793 41.7589 38.9121 42.0098 38.0525L44.0322 30.9412C44.051 30.6645 43.9627 30.3912 43.7672 30.1213C43.5731 29.8302 43.2526 29.6694 42.8056 29.6391C41.9543 29.5812 41.1541 30.0294 40.405 30.9835C39.6574 31.9163 39.0444 33.0721 38.5659 34.4508C38.0888 35.8083 37.8141 37.0191 37.7419 38.0834C37.6696 39.1476 37.7723 39.8388 38.0501 40.157C38.3491 40.4767 38.7221 40.6517 39.1691 40.682ZM54.9577 26.2947C54.4043 26.2571 53.9483 26.0444 53.5897 25.6566C53.2539 25.2489 53.1048 24.7683 53.1424 24.215C53.1785 23.6828 53.3905 23.2375 53.7784 22.879C54.1875 22.5219 54.6688 22.3621 55.2222 22.3997C55.7543 22.4358 56.1989 22.6585 56.556 23.0676C56.9131 23.4767 57.0736 23.9474 57.0374 24.4795C56.9998 25.0329 56.7765 25.4881 56.3674 25.8452C55.9597 26.181 55.4898 26.3309 54.9577 26.2947ZM60.7044 26.685C60.151 26.6474 59.6951 26.4347 59.3365 26.0468C59.0007 25.6392 58.8516 25.1586 58.8892 24.6052C58.9253 24.0731 59.1373 23.6278 59.5251 23.2692C59.9343 22.9121 60.4155 22.7524 60.9689 22.79C61.501 22.8261 61.9456 23.0487 62.3027 23.4579C62.6598 23.867 62.8203 24.3376 62.7842 24.8697C62.7466 25.4231 62.5233 25.8784 62.1141 26.2355C61.7064 26.5713 61.2365 26.7211 60.7044 26.685ZM52.4572 44.6956C50.9034 44.5901 49.7177 44.1033 48.8999 43.2352C48.0836 42.3459 47.7348 41.0285 47.8533 39.2832C47.953 37.8146 48.3502 36.2165 49.0449 34.4889C49.7395 32.7614 50.7794 31.3031 52.1644 30.1143C53.551 28.9041 55.2446 28.3669 57.2453 28.5028C59.5866 28.6618 60.6878 29.7629 60.5491 31.8062C60.4681 32.9982 60.0531 34.0712 59.3041 35.0253C58.5551 35.9794 57.5956 36.7268 56.4256 37.2674C55.257 37.7868 54.0313 38.0456 52.7485 38.044C52.6741 38.5094 52.6312 38.8272 52.6196 38.9975C52.4996 40.7641 53.0995 41.6922 54.4191 41.7818C55.015 41.8223 55.6644 41.706 56.3672 41.433C57.07 41.16 57.7147 40.7975 58.3013 40.3456C57.5127 43.4566 55.5647 44.9066 52.4572 44.6956ZM53.0761 36.5268C53.8863 36.5604 54.66 36.3457 55.397 35.8825C56.1554 35.4209 56.7742 34.8107 57.2533 34.0521C57.7552 33.2737 58.0358 32.4481 58.0951 31.5754C58.1543 30.7028 57.9179 30.2484 57.3858 30.2123C56.6409 30.1617 55.8496 30.7922 55.0122 32.1038C54.1975 33.3955 53.5521 34.8699 53.0761 36.5268ZM62.8081 45.3985C61.7864 45.3292 60.978 44.9535 60.3828 44.2716C59.809 43.5912 59.5654 42.6124 59.6521 41.3354C59.6882 40.8033 59.8204 40.1173 60.0485 39.2775L62.5733 30.4362L61.5197 30.3647L61.8619 29.105L62.9154 29.1765L64.1724 24.8357L68.9409 24.5181L67.5128 29.4887L69.4284 29.6188L69.0863 30.8786L67.1707 30.7485L64.477 40.1876C64.3701 40.5011 64.3045 40.8388 64.2799 41.2006C64.251 41.6263 64.3258 41.9414 64.5043 42.146C64.7056 42.3307 65.0404 42.439 65.5086 42.4708C66.1259 42.5127 66.7179 42.2963 67.2847 41.8216C67.853 41.3257 68.2823 40.6706 68.5728 39.8564L69.9137 39.9475C68.9701 42.1927 67.8529 43.6884 66.562 44.4347C65.2726 45.1596 64.0213 45.4809 62.8081 45.3985ZM74.7049 28.2452C74.0025 28.1975 73.4232 27.9122 72.9669 27.3895C72.5106 26.8667 72.3063 26.2541 72.354 25.5517C72.4017 24.8493 72.6869 24.27 73.2097 23.8137C73.7339 23.3361 74.3472 23.1212 75.0496 23.1689C75.752 23.2166 76.3306 23.5125 76.7855 24.0565C77.263 24.5808 77.478 25.1941 77.4303 25.8964C77.3826 26.5988 77.0867 27.1774 76.5426 27.6323C76.0198 28.0886 75.4073 28.2929 74.7049 28.2452ZM71.2878 45.9744C70.2661 45.905 69.4677 45.5408 68.8923 44.8816C68.3184 44.2011 68.0749 43.2224 68.1616 41.9453C68.1948 41.4558 68.3277 40.7592 68.5601 39.8555L71.4271 29.7546L76.0245 30.0668L72.9886 40.7657C72.8818 41.0792 72.8161 41.4168 72.7915 41.7786C72.7395 42.5449 73.1817 42.9598 74.1182 43.0234C74.9058 43.0769 75.7972 42.8594 76.7926 42.3711C77.8107 41.8629 78.6793 41.1949 79.3984 40.367L78.2593 30.2186L82.761 30.5243L83.5378 37.5049C84.565 36.5483 85.375 35.6411 85.9678 34.7833C86.5606 33.9255 86.8765 33.2093 86.9155 32.6346C86.9285 32.443 86.9266 32.3146 86.9096 32.2493C86.6088 32.2717 86.4264 32.2807 86.3625 32.2763C85.8304 32.2402 85.4582 32.0545 85.2457 31.7194C85.0347 31.3629 84.9473 30.9186 84.9834 30.3865C85.0152 29.9183 85.2101 29.568 85.568 29.3357C85.9273 29.0822 86.3624 28.9727 86.8732 29.0074C87.5543 29.0537 88.0683 29.3558 88.4153 29.914C88.7623 30.4721 88.9076 31.1662 88.8512 31.9963C88.7819 33.0179 88.3449 34.1002 87.5402 35.2429C86.7584 36.3659 85.5015 37.7131 83.7697 39.2847L83.9487 40.9006C84.0679 41.9778 84.2309 42.7266 84.4376 43.1469C84.6655 43.5686 85.1094 43.8019 85.7692 43.8467C86.1523 43.8727 86.4972 43.832 86.8039 43.7245C86.6465 44.783 86.2077 45.5764 85.4876 46.1048C84.7902 46.6134 83.9839 46.8366 83.0687 46.7745C82.0683 46.7065 81.3138 46.3239 80.8052 45.6265C80.3194 44.9092 79.9384 43.7501 79.6622 42.149C78.4489 43.3282 77.0903 44.2837 75.5866 45.0155C74.1042 45.7487 72.6713 46.0684 71.2878 45.9744Z" fill="white"/>
<path d="M33.9351 42.1869L33.1732 42.8346L33.9351 42.1869ZM34.2483 33.3237L33.3346 32.9173L33.3318 32.9236L34.2483 33.3237ZM37.357 29.1087L38.0013 29.8735L38.0015 29.8733L37.357 29.1087ZM43.8675 28.1716L44.4952 27.3931L43.8675 28.1716ZM44.4106 29.6198L43.4129 29.552L45.3737 29.8888L44.4106 29.6198ZM44.8767 27.9515L44.9445 26.9538L44.1326 26.8987L43.9136 27.6824L44.8767 27.9515ZM49.4741 28.2637L50.4362 28.5367L50.773 27.3496L49.5419 27.266L49.4741 28.2637ZM46.4383 38.9626L47.3848 39.2851L47.3932 39.2606L47.4003 39.2356L46.4383 38.9626ZM46.4656 40.921L45.7122 41.5785L45.7487 41.6203L45.7895 41.6577L46.4656 40.921ZM48.181 41.1658L49.0848 41.5936L50.1999 39.2383L47.7954 40.2431L48.181 41.1658ZM46.6688 43.5969L47.3615 44.3181L47.3694 44.3105L47.3772 44.3027L46.6688 43.5969ZM42.6823 43.262L41.9289 43.9196L41.9421 43.9346L41.9558 43.9492L42.6823 43.262ZM41.8422 40.9919L42.8399 40.9242L42.6591 38.2576L41.0451 40.388L41.8422 40.9919ZM40.7833 40.054L41.4247 40.8212L41.4254 40.8206L40.7833 40.054ZM42.0098 38.0525L42.9697 38.3326L42.9716 38.326L42.0098 38.0525ZM44.0322 30.9412L44.9941 31.2147L45.0228 31.1137L45.0299 31.0089L44.0322 30.9412ZM43.7672 30.1213L42.9351 30.6759L42.9459 30.6922L42.9573 30.708L43.7672 30.1213ZM40.405 30.9835L41.1854 31.6089L41.1916 31.601L40.405 30.9835ZM38.5659 34.4508L39.5093 34.7824L39.5106 34.7787L38.5659 34.4508ZM38.0501 40.157L37.2967 40.8146L37.308 40.8276L37.3198 40.8402L38.0501 40.157ZM36.9513 42.6403C35.9931 42.5752 35.2657 42.2081 34.6969 41.5391L33.1732 42.8346C34.1093 43.9356 35.3476 44.536 36.8158 44.6357L36.9513 42.6403ZM34.6969 41.5391C34.1837 40.9355 33.8727 39.9171 33.9841 38.2772L31.9887 38.1417C31.8601 40.035 32.1816 41.6682 33.1732 42.8346L34.6969 41.5391ZM33.9841 38.2772C34.0821 36.8337 34.4691 35.3174 35.1648 33.7238L33.3318 32.9236C32.5589 34.6942 32.1046 36.4351 31.9887 38.1417L33.9841 38.2772ZM35.162 33.7301C35.8627 32.1548 36.8111 30.8761 38.0013 29.8735L36.7128 28.3439C35.2722 29.5574 34.148 31.0887 33.3346 32.9173L35.162 33.7301ZM38.0015 29.8733C39.1443 28.9101 40.4209 28.4908 41.8826 28.5901L42.0181 26.5947C40.0317 26.4598 38.2461 27.0514 36.7126 28.3441L38.0015 29.8733ZM41.8826 28.5901C42.6757 28.644 43.0699 28.8131 43.2398 28.9501L44.4952 27.3931C43.8542 26.8764 42.9703 26.6594 42.0181 26.5947L41.8826 28.5901ZM43.2398 28.9501C43.4097 29.0871 43.4377 29.1875 43.4281 29.3285L45.4235 29.464C45.4804 28.626 45.1362 27.91 44.4952 27.3931L43.2398 28.9501ZM43.4281 29.3285L43.4129 29.552L45.4083 29.6875L45.4235 29.464L43.4281 29.3285ZM45.3737 29.8888L45.8398 28.2206L43.9136 27.6824L43.4475 29.3507L45.3737 29.8888ZM44.809 28.9492L49.4064 29.2614L49.5419 27.266L44.9445 26.9538L44.809 28.9492ZM48.5121 27.9907L45.4762 38.6896L47.4003 39.2356L50.4362 28.5367L48.5121 27.9907ZM45.4917 38.6401C45.3543 39.0433 45.2734 39.4674 45.2435 39.9078L47.2389 40.0433C47.2581 39.7601 47.3086 39.5089 47.3848 39.2851L45.4917 38.6401ZM45.2435 39.9078C45.2066 40.4515 45.282 41.0856 45.7122 41.5785L47.219 40.2634C47.2552 40.3049 47.2557 40.3302 47.2486 40.3002C47.2404 40.2658 47.2292 40.1858 47.2389 40.0433L45.2435 39.9078ZM45.7895 41.6577C46.2414 42.0725 46.8546 42.2063 47.4022 42.2435L47.5377 40.2481C47.3598 40.236 47.2441 40.2114 47.1754 40.1892C47.1069 40.1671 47.1106 40.1556 47.1418 40.1842L45.7895 41.6577ZM47.4022 42.2435C47.7762 42.2689 48.1888 42.2463 48.5666 42.0884L47.7954 40.2431C47.8134 40.2355 47.8061 40.2419 47.7594 40.2472C47.7132 40.2524 47.6411 40.2551 47.5377 40.2481L47.4022 42.2435ZM47.2772 40.7379C46.7388 41.8751 46.2938 42.5565 45.9604 42.8911L47.3772 44.3027C47.9617 43.716 48.5248 42.7767 49.0848 41.5936L47.2772 40.7379ZM45.9761 42.8756C45.7751 43.0687 45.448 43.2173 44.8371 43.1758L44.7016 45.1712C45.7083 45.2396 46.6475 45.0038 47.3615 44.3181L45.9761 42.8756ZM44.8371 43.1758C44.1727 43.1307 43.7276 42.9118 43.4088 42.5748L41.9558 43.9492C42.6745 44.709 43.6207 45.0978 44.7016 45.1712L44.8371 43.1758ZM43.4357 42.6044C43.1168 42.239 42.8931 41.708 42.8399 40.9242L40.8445 41.0595C40.9196 42.1661 41.2559 43.1485 41.9289 43.9196L43.4357 42.6044ZM41.0451 40.388C39.755 42.0909 38.3986 42.7386 36.9513 42.6403L36.8158 44.6357C39.1145 44.7918 41.0639 43.6753 42.6393 41.5957L41.0451 40.388ZM39.1013 41.6797C39.9663 41.7385 40.7498 41.3854 41.4247 40.8212L40.1419 39.2868C39.7287 39.6322 39.436 39.6979 39.2368 39.6843L39.1013 41.6797ZM41.4254 40.8206C42.1735 40.1941 42.6753 39.3416 42.9697 38.3326L41.0498 37.7724C40.8426 38.4826 40.5268 38.9645 40.1413 39.2873L41.4254 40.8206ZM42.9716 38.326L44.9941 31.2147L43.0704 30.6676L41.0479 37.7789L42.9716 38.326ZM45.0299 31.0089C45.0676 30.4541 44.8809 29.9542 44.577 29.5346L42.9573 30.708C43.0032 30.7712 43.0214 30.8141 43.0286 30.8363C43.035 30.8563 43.035 30.8665 43.0345 30.8734L45.0299 31.0089ZM44.5993 29.5667C44.1863 28.9471 43.535 28.6863 42.8734 28.6414L42.7379 30.6368C42.8608 30.6451 42.917 30.6683 42.9329 30.6763C42.9403 30.68 42.9408 30.6812 42.938 30.6788C42.9352 30.6762 42.934 30.6744 42.9351 30.6759L44.5993 29.5667ZM42.8734 28.6414C41.5659 28.5526 40.479 29.2698 39.6185 30.366L41.1916 31.601C41.8291 30.7889 42.3426 30.6099 42.7379 30.6368L42.8734 28.6414ZM39.6247 30.3581C38.792 31.3972 38.1291 32.6594 37.6211 34.123L39.5106 34.7787C39.9597 33.4848 40.5229 32.4354 41.1854 31.6089L39.6247 30.3581ZM37.6224 34.1193C37.1251 35.5343 36.8242 36.8363 36.7442 38.0156L38.7396 38.1511C38.804 37.202 39.0525 36.0823 39.5093 34.7824L37.6224 34.1193ZM36.7442 38.0156C36.7054 38.5861 36.7097 39.1035 36.7756 39.547C36.8385 39.9706 36.9743 40.4452 37.2967 40.8146L38.8035 39.4994C38.8481 39.5506 38.7936 39.5205 38.7538 39.2529C38.717 39.0051 38.706 38.6448 38.7396 38.1511L36.7442 38.0156ZM37.3198 40.8402C37.7963 41.3496 38.4082 41.6327 39.1013 41.6797L39.2368 39.6843C39.036 39.6707 38.9019 39.6038 38.7803 39.4739L37.3198 40.8402ZM53.5898 25.6566L52.8179 26.2924L52.836 26.3144L52.8554 26.3354L53.5898 25.6566ZM53.7784 22.879L53.1208 22.1256L53.11 22.135L53.0996 22.1447L53.7784 22.879ZM56.556 23.0676L55.8026 23.7252L56.556 23.0676ZM56.3674 25.8452L57.0031 26.6171L57.0142 26.608L57.0249 26.5986L56.3674 25.8452ZM59.3365 26.0468L58.5646 26.6826L58.5828 26.7047L58.6022 26.7257L59.3365 26.0468ZM59.5251 23.2692L58.8676 22.5159L58.8568 22.5252L58.8463 22.5349L59.5251 23.2692ZM62.1141 26.2355L62.7499 27.0073L62.7609 26.9983L62.7717 26.9889L62.1141 26.2355ZM48.8999 43.2352L48.1631 43.9115L48.172 43.9209L48.8999 43.2352ZM49.0449 34.4889L49.9727 34.862L49.0449 34.4889ZM52.1644 30.1143L52.8158 30.8731L52.822 30.8676L52.1644 30.1143ZM59.3041 35.0253L60.0907 35.6428L60.0907 35.6428L59.3041 35.0253ZM56.4256 37.2674L56.8317 38.1812L56.8384 38.1782L56.845 38.1752L56.4256 37.2674ZM52.7485 38.044L52.7497 37.044L51.8958 37.043L51.761 37.8862L52.7485 38.044ZM58.3013 40.3456L59.2707 40.5913L59.981 37.7892L57.691 39.5534L58.3013 40.3456ZM53.0761 36.5268L52.1149 36.2506L51.7637 37.4731L53.0346 37.5259L53.0761 36.5268ZM55.397 35.8825L54.877 35.0283L54.865 35.0358L55.397 35.8825ZM57.2533 34.0521L56.4128 33.5102L56.4079 33.5181L57.2533 34.0521ZM55.0122 32.1038L54.1693 31.5656L54.1664 31.5703L55.0122 32.1038ZM55.0254 25.297C54.7127 25.2758 54.4999 25.168 54.3241 24.9778L52.8554 26.3354C53.3967 26.9209 54.0958 27.2385 54.8899 27.2924L55.0254 25.297ZM54.3616 25.0208C54.1969 24.8208 54.1189 24.5954 54.1401 24.2827L52.1447 24.1472C52.0908 24.9413 52.311 25.677 52.8179 26.2924L54.3616 25.0208ZM54.1401 24.2827C54.1591 24.0026 54.2589 23.7966 54.4572 23.6133L53.0996 22.1447C52.5222 22.6784 52.1979 23.3631 52.1447 24.1472L54.1401 24.2827ZM54.436 23.6324C54.6405 23.4538 54.8593 23.3774 55.1544 23.3974L55.2899 21.402C54.4783 21.3469 53.7345 21.59 53.1208 22.1256L54.436 23.6324ZM55.1544 23.3974C55.4166 23.4152 55.6163 23.5118 55.8026 23.7252L57.3094 22.41C56.7814 21.8052 56.092 21.4565 55.2899 21.402L55.1544 23.3974ZM55.8026 23.7252C55.9889 23.9386 56.0575 24.1496 56.0397 24.4117L58.0351 24.5472C58.0896 23.7452 57.8373 23.0149 57.3094 22.41L55.8026 23.7252ZM56.0397 24.4117C56.0197 24.7068 55.9144 24.9133 55.7098 25.0918L57.0249 26.5986C57.6386 26.063 57.98 25.3589 58.0351 24.5472L56.0397 24.4117ZM55.7316 25.0733C55.5231 25.2451 55.3055 25.3161 55.0254 25.297L54.8899 27.2924C55.674 27.3457 56.3962 27.117 57.0031 26.6171L55.7316 25.0733ZM60.7722 25.6873C60.4594 25.6661 60.2467 25.5583 60.0708 25.368L58.6022 26.7257C59.1434 27.3111 59.8426 27.6288 60.6367 27.6827L60.7722 25.6873ZM60.1084 25.4111C59.9437 25.2111 59.8656 24.9857 59.8869 24.673L57.8915 24.5375C57.8375 25.3315 58.0577 26.0672 58.5646 26.6826L60.1084 25.4111ZM59.8869 24.673C59.9059 24.3929 60.0056 24.1869 60.204 24.0036L58.8463 22.5349C58.269 23.0687 57.9447 23.7534 57.8915 24.5375L59.8869 24.673ZM60.1827 24.0226C60.3873 23.8441 60.6061 23.7676 60.9012 23.7877L61.0367 21.7923C60.225 21.7371 59.4813 21.9802 58.8676 22.5159L60.1827 24.0226ZM60.9012 23.7877C61.1633 23.8055 61.3631 23.902 61.5494 24.1154L63.0561 22.8003C62.5282 22.1954 61.8388 21.8467 61.0367 21.7923L60.9012 23.7877ZM61.5494 24.1154C61.7356 24.3289 61.8043 24.5398 61.7865 24.802L63.7819 24.9375C63.8364 24.1354 63.5841 23.4052 63.0561 22.8003L61.5494 24.1154ZM61.7865 24.802C61.7664 25.0971 61.6611 25.3035 61.4565 25.4821L62.7717 26.9889C63.3854 26.4532 63.7268 25.7492 63.7819 24.9375L61.7865 24.802ZM61.4783 25.4636C61.2698 25.6353 61.0523 25.7063 60.7722 25.6873L60.6367 27.6827C61.4208 27.7359 62.143 27.5073 62.7499 27.0073L61.4783 25.4636ZM52.5249 43.6979C51.1435 43.6041 50.2251 43.1835 49.6278 42.5495L48.172 43.9209C49.2102 45.023 50.6633 45.5761 52.3894 45.6933L52.5249 43.6979ZM49.6367 42.559C49.0755 41.9476 48.7426 40.9469 48.851 39.351L46.8556 39.2155C46.7269 41.1101 47.0918 42.7441 48.1632 43.9114L49.6367 42.559ZM48.851 39.351C48.942 38.0107 49.3073 36.5167 49.9727 34.862L48.1171 34.1159C47.3931 35.9163 46.964 37.6185 46.8556 39.2155L48.851 39.351ZM49.9727 34.862C50.6087 33.2802 51.555 31.9553 52.8158 30.8731L51.5131 29.3555C50.0038 30.651 48.8703 32.2425 48.1171 34.1159L49.9727 34.862ZM52.822 30.8676C53.9898 29.8484 55.4153 29.3808 57.1775 29.5005L57.3131 27.5051C55.0739 27.353 53.1121 27.9598 51.5069 29.3609L52.822 30.8676ZM57.1775 29.5005C58.2252 29.5717 58.8089 29.8439 59.1201 30.1551C59.4069 30.4418 59.6077 30.9086 59.5514 31.7385L61.5468 31.874C61.6292 30.6606 61.3487 29.5551 60.5343 28.7408C59.7442 27.9508 58.6067 27.593 57.3131 27.5051L57.1775 29.5005ZM59.5514 31.7385C59.4842 32.7269 59.1446 33.609 58.5175 34.4078L60.0907 35.6428C60.9616 34.5334 61.452 33.2695 61.5468 31.874L59.5514 31.7385ZM58.5175 34.4078C57.8723 35.2297 57.0417 35.8811 56.0061 36.3596L56.845 38.1752C58.1494 37.5724 59.2379 36.7291 60.0907 35.6428L58.5175 34.4078ZM56.0194 36.3536C54.9796 36.8158 53.8927 37.0455 52.7497 37.044L52.7473 39.044C54.17 39.0458 55.5345 38.7578 56.8317 38.1812L56.0194 36.3536ZM51.761 37.8862C51.6874 38.3469 51.637 38.7077 51.6219 38.9298L53.6173 39.0653C53.6253 38.9468 53.6609 38.6719 53.736 38.2019L51.761 37.8862ZM51.6219 38.9298C51.5554 39.9084 51.6709 40.8361 52.1396 41.5613C52.6455 42.344 53.4466 42.7181 54.3513 42.7795L54.4868 40.7841C54.072 40.756 53.9134 40.6212 53.8194 40.4757C53.6883 40.2729 53.5638 39.8533 53.6173 39.0653L51.6219 38.9298ZM54.3513 42.7795C55.1268 42.8322 55.9245 42.6778 56.7293 42.3652L56.0051 40.5009C55.4043 40.7343 54.9033 40.8124 54.4868 40.7841L54.3513 42.7795ZM56.7293 42.3652C57.5194 42.0582 58.248 41.649 58.9116 41.1377L57.691 39.5534C57.1814 39.946 56.6205 40.2618 56.0051 40.5009L56.7293 42.3652ZM57.332 40.0999C56.9759 41.5047 56.3895 42.415 55.6517 42.9642C54.9178 43.5105 53.9096 43.7919 52.5249 43.6979L52.3894 45.6933C54.1122 45.8103 55.6318 45.4722 56.8459 44.5685C58.0562 43.6677 58.8382 42.2975 59.2707 40.5913L57.332 40.0999ZM53.0346 37.5259C54.0621 37.5686 55.0339 37.2917 55.9291 36.7293L54.865 35.0358C54.2861 35.3996 53.7105 35.5522 53.1175 35.5276L53.0346 37.5259ZM55.917 36.7367C56.8086 36.1939 57.5382 35.4737 58.0988 34.5861L56.4079 33.5181C56.0101 34.1477 55.5022 34.6478 54.877 35.0284L55.917 36.7367ZM58.0938 34.594C58.6818 33.682 59.0214 32.6946 59.0928 31.6432L57.0974 31.5077C57.0502 32.2015 56.8287 32.8653 56.4129 33.5102L58.0938 34.594ZM59.0928 31.6432C59.1271 31.138 59.093 30.5869 58.8493 30.1186C58.5622 29.5668 58.0501 29.2551 57.4536 29.2145L57.318 31.21C57.3124 31.2096 57.259 31.2038 57.1914 31.1607C57.1221 31.1165 57.0867 31.064 57.0751 31.0417C57.0671 31.0263 57.0816 31.0474 57.0929 31.1317C57.1039 31.2147 57.1089 31.3372 57.0974 31.5077L59.0928 31.6432ZM57.4536 29.2145C56.7548 29.1671 56.1311 29.4502 55.6105 29.8651C55.0954 30.2756 54.619 30.8614 54.1693 31.5656L55.855 32.6419C56.2428 32.0346 56.5808 31.6493 56.8569 31.4292C57.1275 31.2136 57.2718 31.2068 57.318 31.21L57.4536 29.2145ZM54.1664 31.5703C53.2952 32.9515 52.6137 34.5144 52.1149 36.2506L54.0372 36.8029C54.4904 35.2253 55.0997 33.8396 55.858 32.6372L54.1664 31.5703ZM60.3828 44.2716L59.6184 44.9163L59.6239 44.9228L59.6295 44.9292L60.3828 44.2716ZM60.0485 39.2775L59.0868 39.0029L59.0834 39.0154L60.0485 39.2775ZM62.5733 30.4362L63.5349 30.7108L63.8743 29.5223L62.6411 29.4385L62.5733 30.4362ZM61.5197 30.3647L60.5547 30.1026L60.235 31.2797L61.452 31.3624L61.5197 30.3647ZM61.8619 29.105L61.9296 28.1073L61.1117 28.0517L60.8968 28.8429L61.8619 29.105ZM62.9154 29.1765L62.8477 30.1742L63.6518 30.2288L63.876 29.4547L62.9154 29.1765ZM64.1724 24.8357L64.106 23.8379L63.4068 23.8845L63.2119 24.5576L64.1724 24.8357ZM68.9409 24.5181L69.902 24.7942L70.2952 23.4257L68.8745 23.5203L68.9409 24.5181ZM67.5128 29.4887L66.5517 29.2126L66.2099 30.4026L67.4451 30.4864L67.5128 29.4887ZM69.4284 29.6188L70.3935 29.8809L70.7132 28.7038L69.4962 28.6211L69.4284 29.6188ZM69.0863 30.8785L69.0185 31.8763L69.8365 31.9318L70.0513 31.1407L69.0863 30.8785ZM67.1707 30.7485L67.2385 29.7508L66.4312 29.6959L66.2091 30.474L67.1707 30.7485ZM64.477 40.1876L65.4235 40.5102L65.4317 40.4863L65.4386 40.4621L64.477 40.1876ZM64.5043 42.146L63.751 42.8036L63.7874 42.8453L63.8282 42.8827L64.5043 42.146ZM67.2847 41.8216L67.9268 42.5883L67.9346 42.5817L67.9423 42.575L67.2847 41.8216ZM68.5728 39.8564L68.6406 38.8587L67.8854 38.8074L67.631 39.5203L68.5728 39.8564ZM69.9137 39.9475L70.8356 40.3349L71.3779 39.0446L69.9815 38.9498L69.9137 39.9475ZM66.562 44.4347L67.0521 45.3064L67.0625 45.3004L66.562 44.4347ZM62.8758 44.4008C62.0809 44.3468 61.5335 44.0692 61.1362 43.6141L59.6295 44.9292C60.4225 45.8378 61.4919 46.3115 62.7403 46.3962L62.8758 44.4008ZM61.1473 43.6269C60.8017 43.2172 60.573 42.5347 60.6498 41.4031L58.6544 41.2676C58.5578 42.6901 58.8162 43.9651 59.6184 44.9163L61.1473 43.6269ZM60.6498 41.4031C60.6796 40.9647 60.7933 40.3503 61.0135 39.5396L59.0834 39.0154C58.8474 39.8843 58.6969 40.6419 58.6544 41.2676L60.6498 41.4031ZM61.01 39.5521L63.5349 30.7108L61.6117 30.1616L59.0869 39.0029L61.01 39.5521ZM62.6411 29.4385L61.5875 29.367L61.452 31.3624L62.5055 31.4339L62.6411 29.4385ZM62.4848 30.6268L62.8269 29.3671L60.8968 28.8429L60.5547 30.1026L62.4848 30.6268ZM61.7941 30.1027L62.8477 30.1742L62.9832 28.1788L61.9296 28.1073L61.7941 30.1027ZM63.876 29.4547L65.133 25.1139L63.2119 24.5576L61.9549 28.8984L63.876 29.4547ZM64.2389 25.8335L69.0074 25.5159L68.8745 23.5203L64.106 23.8379L64.2389 25.8335ZM67.9798 24.242L66.5517 29.2126L68.474 29.7649L69.902 24.7942L67.9798 24.242ZM67.4451 30.4864L69.3607 30.6165L69.4962 28.6211L67.5806 28.491L67.4451 30.4864ZM68.4634 29.3567L68.1213 30.6164L70.0513 31.1407L70.3935 29.8809L68.4634 29.3567ZM69.1541 29.8808L67.2385 29.7508L67.103 31.7462L69.0185 31.8763L69.1541 29.8808ZM66.2091 30.474L63.5154 39.9132L65.4386 40.4621L68.1323 31.0229L66.2091 30.474ZM63.5304 39.8651C63.393 40.2683 63.3121 40.6924 63.2822 41.1329L65.2776 41.2684C65.2968 40.9852 65.3473 40.7339 65.4235 40.5102L63.5304 39.8651ZM63.2822 41.1329C63.2453 41.6766 63.3207 42.3106 63.751 42.8036L65.2577 41.4884C65.2939 41.5299 65.2944 41.5552 65.2873 41.5252C65.2791 41.4908 65.2679 41.4108 65.2776 41.2684L63.2822 41.1329ZM63.8282 42.8827C64.2801 43.2975 64.8933 43.4313 65.4409 43.4685L65.5764 41.4731C65.3986 41.461 65.2828 41.4365 65.2141 41.4143C65.1456 41.3921 65.1493 41.3806 65.1805 41.4092L63.8282 42.8827ZM65.4409 43.4685C66.3646 43.5312 67.2032 43.1943 67.9268 42.5883L66.6426 41.055C66.2327 41.3983 65.8871 41.4942 65.5764 41.4731L65.4409 43.4685ZM67.9423 42.575C68.6572 41.951 69.1752 41.1439 69.5147 40.1924L67.631 39.5203C67.3895 40.1972 67.0487 40.7003 66.6271 41.0682L67.9423 42.575ZM68.5051 40.8541L69.846 40.9452L69.9815 38.9498L68.6406 38.8587L68.5051 40.8541ZM68.9918 39.56C68.0835 41.7212 67.0771 42.9818 66.0615 43.5689L67.0625 45.3004C68.6286 44.395 69.8567 42.6642 70.8356 40.3349L68.9918 39.56ZM66.0719 43.563C64.9151 44.2134 63.8563 44.4674 62.8758 44.4008L62.7403 46.3962C64.1862 46.4944 65.63 46.1059 67.0521 45.3063L66.0719 43.563ZM72.9669 27.3895L73.7203 26.7319L72.9669 27.3895ZM73.2097 23.8137L73.8673 24.5671L73.8753 24.5601L73.8832 24.5529L73.2097 23.8137ZM76.7855 24.0565L76.0183 24.6979L76.0319 24.7143L76.0462 24.73L76.7855 24.0565ZM76.5426 27.6323L75.9012 26.8651L75.8931 26.8719L75.8851 26.8789L76.5426 27.6323ZM68.8923 44.8816L68.1279 45.5263L68.1334 45.5328L68.1389 45.5392L68.8923 44.8816ZM68.5601 39.8555L67.5981 39.5825L67.5947 39.5944L67.5916 39.6064L68.5601 39.8555ZM71.4271 29.7546L71.4948 28.7569L70.6863 28.702L70.4651 29.4815L71.4271 29.7546ZM76.0245 30.0668L76.9865 30.3398L77.3234 29.1527L76.0922 29.0691L76.0245 30.0668ZM72.9886 40.7657L73.9352 41.0882L73.9435 41.0636L73.9506 41.0387L72.9886 40.7657ZM76.7926 42.3711L77.233 43.2689L77.2392 43.2658L76.7926 42.3711ZM79.3984 40.367L80.1533 41.0228L80.441 40.6916L80.3921 40.2555L79.3984 40.367ZM78.2593 30.2186L78.3271 29.2209L77.132 29.1397L77.2656 30.3301L78.2593 30.2186ZM82.761 30.5243L83.7548 30.4137L83.6624 29.5832L82.8287 29.5266L82.761 30.5243ZM83.5378 37.5049L82.5439 37.6155L82.7639 39.5922L84.2193 38.2367L83.5378 37.5049ZM85.9678 34.7833L85.1451 34.2148L85.9678 34.7833ZM86.9096 32.2493L87.8776 31.9981L87.6679 31.1903L86.8356 31.2521L86.9096 32.2493ZM85.2457 31.7194L84.3852 32.2288L84.3929 32.2419L84.4011 32.2547L85.2457 31.7194ZM85.568 29.3357L86.1124 30.1745L86.1287 30.164L86.1445 30.1528L85.568 29.3357ZM88.4153 29.914L87.5661 30.4419L87.5661 30.4419L88.4153 29.914ZM87.5402 35.2429L86.7226 34.6672L86.7196 34.6715L87.5402 35.2429ZM83.7697 39.2847L83.0977 38.5442L82.7196 38.8873L82.7758 39.3948L83.7697 39.2847ZM83.9487 40.9006L82.9547 41.0106L83.9487 40.9006ZM84.4376 43.1469L83.5402 43.5881L83.5487 43.6054L83.5579 43.6223L84.4376 43.1469ZM86.8039 43.7245L87.793 43.8716L88.0367 42.2328L86.4731 42.7808L86.8039 43.7245ZM85.4876 46.1048L86.0768 46.9128L86.0792 46.911L85.4876 46.1048ZM80.8052 45.6265L79.9773 46.1873L79.987 46.2017L79.9973 46.2157L80.8052 45.6265ZM79.6622 42.149L80.6477 41.979L80.3253 40.1102L78.9653 41.4319L79.6622 42.149ZM75.5866 45.0155L75.149 44.1163L75.1433 44.1191L75.5866 45.0155ZM74.7726 27.2475C74.3305 27.2175 73.9993 27.0516 73.7203 26.7319L72.2135 28.047C72.847 28.7729 73.6745 29.1775 74.6371 29.2429L74.7726 27.2475ZM73.7203 26.7319C73.4412 26.4122 73.3217 26.0616 73.3517 25.6195L71.3563 25.484C71.2909 26.4466 71.58 27.3212 72.2135 28.047L73.7203 26.7319ZM73.3517 25.6195C73.3817 25.1774 73.5475 24.8462 73.8673 24.5671L72.5521 23.0603C71.8263 23.6938 71.4217 24.5213 71.3563 25.484L73.3517 25.6195ZM73.8832 24.5529C74.2075 24.2574 74.5537 24.1375 74.9819 24.1666L75.1174 22.1712C74.1408 22.1049 73.2603 22.4148 72.5362 23.0745L73.8832 24.5529ZM74.9819 24.1666C75.41 24.1957 75.7368 24.3613 76.0183 24.6979L77.5527 23.4151C76.9244 22.6637 76.094 22.2375 75.1174 22.1712L74.9819 24.1666ZM76.0462 24.73C76.3418 25.0544 76.4617 25.4005 76.4326 25.8287L78.428 25.9642C78.4943 24.9876 78.1843 24.1072 77.5247 23.3831L76.0462 24.73ZM76.4326 25.8287C76.4035 26.2569 76.2379 26.5836 75.9012 26.8651L77.184 28.3995C77.9355 27.7713 78.3617 26.9408 78.428 25.9642L76.4326 25.8287ZM75.8851 26.8789C75.5653 27.158 75.2147 27.2775 74.7726 27.2475L74.6371 29.2429C75.5998 29.3083 76.4744 29.0192 77.2002 28.3857L75.8851 26.8789ZM71.3555 44.9767C70.5499 44.922 70.017 44.6494 69.6457 44.224L68.1389 45.5392C68.9183 46.4321 69.9824 46.8881 71.22 46.9721L71.3555 44.9767ZM69.6568 44.2369C69.3112 43.8272 69.0824 43.1447 69.1593 42.0131L67.1639 41.8776C67.0673 43.3001 67.3257 44.5751 68.1279 45.5263L69.6568 44.2369ZM69.1593 42.0131C69.1862 41.6171 69.3004 40.9918 69.5286 40.1046L67.5916 39.6064C67.355 40.5266 67.2035 41.2945 67.1639 41.8776L69.1593 42.0131ZM69.5221 40.1286L72.3891 30.0276L70.4651 29.4815L67.5981 39.5825L69.5221 40.1286ZM71.3593 30.7523L75.9567 31.0645L76.0922 29.0691L71.4948 28.7569L71.3593 30.7523ZM75.0625 29.7938L72.0266 40.4927L73.9506 41.0387L76.9865 30.3398L75.0625 29.7938ZM72.0421 40.4431C71.9047 40.8464 71.8237 41.2704 71.7938 41.7109L73.7892 41.8464C73.8085 41.5632 73.8589 41.312 73.9352 41.0882L72.0421 40.4431ZM71.7938 41.7109C71.7534 42.3066 71.9038 42.9282 72.4 43.3938C72.86 43.8254 73.4716 43.9818 74.0505 44.0211L74.186 42.0257C73.8283 42.0014 73.7506 41.9186 73.7684 41.9352C73.7734 41.9399 73.78 41.9475 73.7861 41.9571C73.789 41.9616 73.7911 41.9656 73.7926 41.9688C73.7933 41.9703 73.7939 41.9716 73.7942 41.9724C73.7946 41.9733 73.7947 41.9738 73.7947 41.9738C73.7947 41.9738 73.794 41.9716 73.793 41.967C73.792 41.9623 73.7908 41.955 73.7897 41.9447C73.7875 41.9238 73.7862 41.8917 73.7892 41.8464L71.7938 41.7109ZM74.0505 44.0211C75.0701 44.0903 76.1405 43.8049 77.233 43.2689L76.3521 41.4733C75.4539 41.914 74.7414 42.0634 74.186 42.0257L74.0505 44.0211ZM77.2392 43.2658C78.3702 42.7013 79.3449 41.9535 80.1533 41.0228L78.6434 39.7113C78.0137 40.4363 77.2511 41.0246 76.346 41.4764L77.2392 43.2658ZM80.3921 40.2555L79.2531 30.107L77.2656 30.3301L78.4046 40.4786L80.3921 40.2555ZM78.1916 31.2163L82.6932 31.522L82.8287 29.5266L78.3271 29.2209L78.1916 31.2163ZM81.7671 30.6349L82.5439 37.6155L84.5316 37.3943L83.7548 30.4137L81.7671 30.6349ZM84.2193 38.2367C85.2824 37.2467 86.1453 36.2854 86.7904 35.3519L85.1451 34.2148C84.6046 34.9969 83.8475 35.85 82.8563 36.7731L84.2193 38.2367ZM86.7904 35.3519C87.4145 34.4488 87.8557 33.5501 87.9132 32.7024L85.9178 32.5669C85.8974 32.8685 85.7067 33.4022 85.1451 34.2148L86.7904 35.3519ZM87.9132 32.7024C87.9247 32.5333 87.9415 32.2446 87.8776 31.9981L85.9417 32.5005C85.9346 32.4733 85.9306 32.4515 85.9283 32.4375C85.9259 32.4231 85.9248 32.4127 85.9243 32.4073C85.9233 32.3973 85.9237 32.3971 85.9239 32.4099C85.9241 32.422 85.924 32.4411 85.9231 32.4683C85.9221 32.4953 85.9205 32.5279 85.9178 32.5669L87.9132 32.7024ZM86.8356 31.2521C86.6889 31.263 86.5773 31.2701 86.4979 31.274C86.4581 31.276 86.4308 31.2769 86.4137 31.2772C86.3907 31.2777 86.402 31.2767 86.4303 31.2786L86.2948 33.274C86.4474 33.2844 86.7171 33.2664 86.9837 33.2466L86.8356 31.2521ZM86.4303 31.2786C86.2604 31.2671 86.1703 31.2349 86.1305 31.2151C86.0992 31.1995 86.0942 31.1901 86.0903 31.184L84.4011 32.2547C84.8391 32.9457 85.5636 33.2244 86.2948 33.274L86.4303 31.2786ZM86.1062 31.21C86.0243 31.0715 85.9548 30.8423 85.9811 30.4543L83.9857 30.3188C83.9398 30.995 84.0451 31.6543 84.3852 32.2288L86.1062 31.21ZM85.9811 30.4543C85.9941 30.2638 86.0476 30.2166 86.1124 30.1745L85.0235 28.4969C84.3726 28.9194 84.0364 29.5727 83.9857 30.3188L85.9811 30.4543ZM86.1445 30.1528C86.2863 30.0528 86.4843 29.9833 86.8054 30.0051L86.941 28.0097C86.2404 27.9621 85.5683 28.1115 84.9914 28.5187L86.1445 30.1528ZM86.8054 30.0051C87.1804 30.0306 87.3965 30.1692 87.5661 30.4419L89.2646 29.386C88.7402 28.5425 87.9282 28.0767 86.941 28.0097L86.8054 30.0051ZM87.5661 30.4419C87.776 30.7796 87.8995 31.2517 87.8535 31.9285L89.8489 32.064C89.9157 31.0807 89.7486 30.1646 89.2646 29.386L87.5661 30.4419ZM87.8535 31.9285C87.8003 32.7126 87.4589 33.6215 86.7226 34.6672L88.3579 35.8186C89.2309 34.5788 89.7634 33.3233 89.8489 32.064L87.8535 31.9285ZM86.7196 34.6715C86.0005 35.7043 84.807 36.993 83.0977 38.5442L84.4418 40.0253C86.196 38.4333 87.5163 37.0274 88.3609 35.8143L86.7196 34.6715ZM82.7758 39.3948L82.9547 41.0106L84.9426 40.7905L84.7637 39.1747L82.7758 39.3948ZM82.9547 41.0106C83.0744 42.0914 83.2492 42.9964 83.5402 43.5881L85.335 42.7056C85.2126 42.4568 85.0615 41.8642 84.9426 40.7905L82.9547 41.0106ZM83.5579 43.6223C84.0073 44.4539 84.8429 44.7861 85.7015 44.8444L85.837 42.849C85.6038 42.8332 85.4728 42.7877 85.4067 42.7529C85.352 42.7242 85.3324 42.6993 85.3173 42.6714L83.5579 43.6223ZM85.7015 44.8444C86.1955 44.878 86.6791 44.8279 87.1346 44.6683L86.4731 42.7808C86.3153 42.8361 86.1092 42.8675 85.837 42.849L85.7015 44.8444ZM85.8148 43.5774C85.6883 44.428 85.3592 44.9587 84.896 45.2986L86.0792 46.911C87.0562 46.1941 87.6047 45.138 87.793 43.8716L85.8148 43.5774ZM84.8984 45.2968C84.4034 45.6578 83.8331 45.8241 83.1364 45.7768L83.0009 47.7722C84.1347 47.8492 85.177 47.569 86.0768 46.9128L84.8984 45.2968ZM83.1364 45.7768C82.378 45.7252 81.9185 45.4558 81.6132 45.0372L79.9973 46.2157C80.7092 47.1919 81.7586 47.6878 83.0009 47.7722L83.1364 45.7768ZM81.6332 45.0656C81.2695 44.5287 80.9172 43.5415 80.6477 41.979L78.6768 42.319C78.9596 43.9586 79.3693 45.2897 79.9773 46.1873L81.6332 45.0656ZM78.9653 41.4319C77.8272 42.5379 76.556 43.4316 75.149 44.1163L76.0242 45.9146C77.6246 45.1358 79.0705 44.1185 80.3591 42.8662L78.9653 41.4319ZM75.1433 44.1191C73.7886 44.7892 72.5315 45.0566 71.3555 44.9767L71.22 46.9721C72.8111 47.0802 74.4198 46.7083 76.03 45.9118L75.1433 44.1191Z" fill="black" mask="url(#path-45-outside-1_63_48)"/>
</svg>
